<?xml version="1.0" encoding="utf-8"?>
<!-- Generator: Adobe Illustrator 19.1.0, SVG Export Plug-In . SVG Version: 6.00 Build 0)  -->
<svg version="1.1" id="Layer_1" xmlns="http://www.w3.org/2000/svg" xmlns:xlink="http://www.w3.org/1999/xlink" x="0px" y="0px"
	 viewBox="-348 259 44 44" style="enable-background:new -348 259 44 44;" xml:space="preserve">
<style type="text/css">
	.st0{fill:#D53F3F;}
	.st1{fill:#C72222;}
	.st2{fill:#FFFFFF;}
</style>
<path class="st0" d="M-304,303h-41c-1.7,0-3-1.3-3-3v-38c0-1.7,1.3-3,3-3h41V303L-304,303z"/>
<path class="st1" d="M-305,302v-42h-40c-1.1,0-2,0.9-2,2v38c0,1.1,0.9,2,2,2H-305 M-304,303h-41c-1.7,0-3-1.3-3-3v-38
	c0-1.7,1.3-3,3-3h41V303L-304,303L-304,303z"/>
<path class="st2" d="M-334,289v-7h2v5h16v-5h2v7H-334L-334,289z M-331,276.2h5.2V271h2.6v5.2h5.2l-6.5,6.8L-331,276.2L-331,276.2z"
	/>
<path class="st1" d="M-313.9,289v-7h-2v5h-16v-5h-2v7H-313.9 M-324.4,283l6.5-6.8h-5.2V271h-2.6v5.2h-5.2L-324.4,283 M-313.9,291
	h-20l-2-2v-7l2-2h2l2,2v3h12v-3l2-2h2l2,2v7L-313.9,291L-313.9,291L-313.9,291z M-323,284.4h-2.9l-6.5-6.8l1.4-3.4h3.2V271l2-2h2.6
	l2,2v3.2h3.2l1.4,3.4L-323,284.4L-323,284.4L-323,284.4z"/>
</svg>
