<?xml version="1.0" encoding="utf-8"?>
<!-- Generator: Adobe Illustrator 19.1.0, SVG Export Plug-In . SVG Version: 6.00 Build 0)  -->
<svg version="1.1" id="Layer_1" xmlns="http://www.w3.org/2000/svg" xmlns:xlink="http://www.w3.org/1999/xlink" x="0px" y="0px"
	 viewBox="-348 259 44 44" style="enable-background:new -348 259 44 44;" xml:space="preserve">
<style type="text/css">
	.st0{fill:#0A5587;}
	.st1{fill:#00426E;}
	.st2{fill:#FFFFFF;}
</style>
<path class="st0" d="M-304,303h-41c-1.7,0-3-1.3-3-3v-38c0-1.7,1.3-3,3-3h41V303L-304,303z"/>
<path class="st1" d="M-305,302v-42h-40c-1.1,0-2,0.9-2,2v38c0,1.1,0.9,2,2,2H-305 M-304,303h-41c-1.7,0-3-1.3-3-3v-38
	c0-1.7,1.3-3,3-3h41V303L-304,303L-304,303z"/>
<path class="st2" d="M-318.1,277.7c-0.4,1-2.6,5.7-2.8,6c-0.1,0.4-0.4,1-1.5,1.1c-1.1,0.1-0.5,0-0.5,0h-5.5c0.4,1.2,1,1.6,2.4,1.6
	c0.4,0,3.9,0,5.1,0c0.1-0.1,0.2-0.1,0.4-0.1c0.4,0,0.8,0.3,0.8,0.8c0,0.4-0.3,0.7-0.7,0.8l0,0l0,0l0,0l0,0c-0.5,0-5.2,0-6.1,0
	c-1.9,0-2.9-1.6-3-2.1c-0.2-0.5-3.5-11.7-3.8-12.5c-0.3-0.8-0.9-0.7-1.1-0.7c-0.2,0-2.5,0-2.5,0l0,0l0,0c-0.4,0-0.8-0.3-0.8-0.8
	c0-0.4,0.3-0.8,0.8-0.8l0,0l0,0h2.8c1.7,0,2.2,1.5,2.3,1.8c0.1,0.3,0.9,2.8,0.9,2.8h11.6l0,0c0.5,0,1,0.2,1.3,0.4
	C-317.9,276.6-318,277.4-318.1,277.7L-318.1,277.7z M-323.1,283.3h0.4h0.4l0.6-1.3h-1.3v1.3H-323.1z M-323.1,280.9h1.8l0.6-1.3h-2.4
	V280.9L-323.1,280.9z M-327.3,277.2h-3.4l0.5,1.3h2.9V277.2L-327.3,277.2z M-327.3,279.6h-2.6l0.5,1.3h2.1V279.6L-327.3,279.6z
	 M-327.3,281.9h-1.8l0.5,1.3h1.3V281.9L-327.3,281.9z M-324.2,277.2h-2.1v1.3h2.1V277.2L-324.2,277.2z M-324.2,279.6h-2.1v1.3h2.1
	V279.6L-324.2,279.6z M-324.2,281.9h-2.1v1.3h2.1V281.9L-324.2,281.9z M-319.7,277.2h-3.4v1.3h2.7l0,0h0.3l0.6-1.3H-319.7
	L-319.7,277.2z M-327.2,288.2c0.8,0,1.4,0.6,1.4,1.4c0,0.8-0.6,1.4-1.4,1.4c-0.8,0-1.4-0.6-1.4-1.4
	C-328.6,288.8-328,288.2-327.2,288.2L-327.2,288.2z M-322.5,288.2c0.8,0,1.4,0.6,1.4,1.4c0,0.8-0.7,1.4-1.4,1.4
	c-0.8,0-1.4-0.6-1.4-1.4C-323.9,288.8-323.3,288.2-322.5,288.2L-322.5,288.2z"/>
<path class="st1" d="M-322.5,291c0.8,0,1.4-0.6,1.4-1.4c0-0.8-0.6-1.4-1.4-1.4s-1.4,0.6-1.4,1.4C-323.9,290.4-323.3,291-322.5,291
	 M-327.2,291c0.8,0,1.4-0.6,1.4-1.4c0-0.8-0.6-1.4-1.4-1.4c-0.8,0-1.4,0.6-1.4,1.4C-328.6,290.4-328,291-327.2,291 M-320.7,287.9
	L-320.7,287.9C-320.7,287.9-320.6,287.9-320.7,287.9L-320.7,287.9c0.4,0,0.8-0.4,0.8-0.8s-0.3-0.8-0.8-0.8c-0.1,0-0.3,0-0.4,0.1
	c-0.7,0-2.2,0-3.4,0c-0.8,0-1.5,0-1.7,0l0,0c-1.4,0-2-0.4-2.4-1.6h5.6c0,0-0.3,0-0.1,0c0.1,0,0.3,0,0.6,0c1.1,0,1.4-0.7,1.5-1.1
	c0.1-0.4,2.3-5,2.8-6c0.2-0.4,0.3-1.2-0.2-1.7c-0.2-0.3-0.7-0.4-1.3-0.4l0,0h-11.5c0,0-0.8-2.5-0.9-2.8c-0.1-0.3-0.6-1.7-2.3-1.8
	h-2.8l0,0l0,0c-0.4,0-0.8,0.3-0.8,0.8c0,0.4,0.3,0.8,0.8,0.8l0,0l0,0c0,0,2.3,0,2.5,0c0,0,0.1,0,0.2,0c0.3,0,0.7,0.1,0.9,0.7
	c0.3,0.8,3.6,12,3.8,12.5c0.2,0.5,1.1,2.1,3,2.1C-325.9,287.9-321.2,287.9-320.7,287.9L-320.7,287.9 M-323.1,281.9h1.3l-0.6,1.3
	h-0.4h-0.4v-1.3 M-326.3,281.9h2.1v1.3h-2.1V281.9 M-329.1,281.9h1.8v1.3h-1.3L-329.1,281.9 M-323.1,279.6h2.4l-0.6,1.3h-1.8V279.6
	 M-326.3,279.6h2.1v1.3h-2.1V279.6 M-329.8,279.6h2.6v1.3h-2.1L-329.8,279.6 M-323.1,277.2h3.4h0.2l-0.6,1.3h-0.3l0,0h-2.7V277.2
	 M-326.3,277.2h2.1v1.3h-2.1V277.2 M-330.7,277.2h3.4v1.3h-2.9L-330.7,277.2 M-322.5,293c-0.9,0-1.7-0.4-2.3-0.9
	c-0.6,0.6-1.4,0.9-2.3,0.9c-1.9,0-3.4-1.5-3.4-3.4c0-0.4,0.1-0.8,0.2-1.2c-0.7-0.7-1.2-1.4-1.4-2.1c-0.1-0.2-0.4-1.4-1.3-4.4
	c-0.7-2.5-1.8-6-2.2-7.5h-1.9h-0.1l0,0c-1.5-0.1-2.7-1.3-2.7-2.7c0-1.5,1.2-2.8,2.8-2.8l0,0l0,0h2.8c2,0,3.5,1.2,4.2,3.1
	c0.1,0.2,0.3,0.9,0.5,1.5h10.2l0.1,0.1v-0.1c1.1,0,2.1,0.4,2.7,1.1c1,1.1,1,2.8,0.5,3.8c-0.2,0.5-0.9,2-1.5,3.3
	c-0.6,1.3-1.1,2.4-1.2,2.7c0,0.1-0.1,0.2-0.1,0.3c0.8,0.5,1.2,1.3,1.2,2.3s-0.5,1.8-1.2,2.3c0,0.1,0,0.1,0,0.2
	C-319.1,291.5-320.7,293-322.5,293L-322.5,293L-322.5,293z"/>
</svg>
