<?xml version="1.0" encoding="utf-8"?>
<!-- Generator: Adobe Illustrator 19.1.0, SVG Export Plug-In . SVG Version: 6.00 Build 0)  -->
<svg version="1.1" id="Layer_1" xmlns="http://www.w3.org/2000/svg" xmlns:xlink="http://www.w3.org/1999/xlink" x="0px" y="0px"
	 viewBox="-470 271 19 19" style="enable-background:new -470 271 19 19;" xml:space="preserve">
<style type="text/css">
	.st0{fill:#FFFFFF;}
</style>
<path class="st0" d="M-460.5,271c-5.2,0-9.5,4.3-9.5,9.5s4.3,9.5,9.5,9.5s9.5-4.3,9.5-9.5S-455.3,271-460.5,271z M-461.8,278.6
	c-0.1,0-0.1,0-0.2,0c-1.6-0.1-1.9,1.1-1.9,2.4v2.4h-0.9v-5.7h0.9v1.2c0.4-0.9,1.1-1.3,2.1-1.3V278.6z M-456.3,283.4h-0.9l0.1-1
	c-0.5,0.7-1.1,1-2,1c-1.2,0-1.9-0.7-1.9-1.9v-3.9h0.9v3.7c0,0.8,0.2,1.4,1.2,1.4c1.2,0,1.7-0.9,1.7-2v-3h0.9V283.4z"/>
</svg>
