<?xml version="1.0" encoding="utf-8"?>
<!-- Generator: Adobe Illustrator 19.1.0, SVG Export Plug-In . SVG Version: 6.00 Build 0)  -->
<svg version="1.1" id="Layer_1" xmlns="http://www.w3.org/2000/svg" xmlns:xlink="http://www.w3.org/1999/xlink" x="0px" y="0px"
	 viewBox="0 0 480 480" style="enable-background:new 0 0 480 480;" xml:space="preserve">
<style type="text/css">
	.st0{fill-rule:evenodd;clip-rule:evenodd;fill:#FFFFFF;}
	.st1{fill-rule:evenodd;clip-rule:evenodd;fill:#002776;}
	.st2{fill-rule:evenodd;clip-rule:evenodd;fill:#FF6319;}
</style>
<path class="st0" d="M240,41.7c109.5,0,198.2,88.8,198.2,198.3c0,109.5-88.8,198.3-198.2,198.3c-109.5,0-198.2-88.8-198.2-198.3
	C41.8,130.5,130.5,41.7,240,41.7z"/>
<path class="st1" d="M255.5,238.2L156.9,147l56.6-53.1L355,238.2L213.5,386.1l-56.6-53.1L255.5,238.2z"/>
<path class="st2" d="M240,480c-132.5,0-240-107.5-240-240s107.4-240,240-240c132.5,0,240,107.5,240,240S372.6,480,240,480z
	 M239.7,42C130.2,42,41.5,130.8,41.5,240.3c0,109.5,88.8,198.3,198.2,198.3c109.5,0,198.2-88.8,198.2-198.3
	C438,130.8,349.2,42,239.7,42z"/>
</svg>
