<?xml version="1.0" encoding="utf-8"?>
<!-- Generator: Adobe Illustrator 19.1.0, SVG Export Plug-In . SVG Version: 6.00 Build 0)  -->
<svg version="1.1" id="Layer_1" xmlns="http://www.w3.org/2000/svg" xmlns:xlink="http://www.w3.org/1999/xlink" x="0px" y="0px"
	 viewBox="0 0 480 480" style="enable-background:new 0 0 480 480;" xml:space="preserve">
<style type="text/css">
	.st0{fill-rule:evenodd;clip-rule:evenodd;fill:#FFFFFF;}
	.st1{fill-rule:evenodd;clip-rule:evenodd;fill:#002776;}
	.st2{fill-rule:evenodd;clip-rule:evenodd;fill:#FF6319;}
</style>
<path class="st0" d="M438.3,240c0,109.5-88.8,198.3-198.2,198.3c-109.5,0-198.2-88.8-198.2-198.3c0-109.5,88.8-198.3,198.2-198.3
	C349.5,41.7,438.3,130.5,438.3,240z"/>
<path class="st1" d="M323.2,332.9l-56.6,53.1L125,238.2L266.6,93.9l56.6,53.1l-98.6,91.2L323.2,332.9z"/>
<path class="st2" d="M0.1,240c0-132.6,107.4-240,240-240c132.5,0,240,107.5,240,240S372.6,480,240,480C107.5,480,0.1,372.5,0.1,240z
	 M42.1,240.3c0,109.5,88.8,198.3,198.2,198.3c109.5,0,198.2-88.8,198.2-198.3C438.6,130.8,349.8,42,240.3,42
	C130.8,42,42.1,130.8,42.1,240.3z"/>
</svg>
