<?xml version="1.0" encoding="utf-8"?>
<!-- Generator: Adobe Illustrator 19.1.0, SVG Export Plug-In . SVG Version: 6.00 Build 0)  -->
<svg version="1.1" id="Layer_1" xmlns="http://www.w3.org/2000/svg" xmlns:xlink="http://www.w3.org/1999/xlink" x="0px" y="0px"
	 viewBox="0 0 449.4 449.1" style="enable-background:new 0 0 449.4 449.1;" xml:space="preserve">
<style type="text/css">
	.st0{fill-rule:evenodd;clip-rule:evenodd;fill:#FF6319;}
</style>
<path class="st0" d="M445.8,201.1c-2.3,1.2-25.5,13.6-37.1,19.8c-1.8,1-3.4,3.4-4.5,5.6c-0.1,6-0.5,12-1.1,17.9
	c0.8,2.3,2,4.6,3.5,5.6c11.1,7.7,33,22.9,35.3,24.3c3.1,1.8,4.1,4.1,2,10.3c-2.1,6.1-10.9,30.2-12.7,34.3c-1.7,4.2-4.1,5.8-7.5,5.4
	c-2.6-0.3-28.7-2.5-41.8-3.6c-2.4-0.2-5.6,1.4-7.9,2.9c-3.3,4.9-6.8,9.6-10.5,14.1c-0.6,2.4-0.9,4.9-0.2,6.6
	c5,12.5,15,37.2,16.2,39.5c1.6,3.2,1.2,5.7-3.9,9.7c-5.1,4-25.6,19.3-29.3,21.9c-3.7,2.5-6.6,2.6-9.3,0.5c-2-1.6-22.7-17.7-33-25.8
	c-1.9-1.5-5.2-1.8-7.9-1.9c-4.7,2-9.6,3.8-14.5,5.5c-1.3,1.4-2.3,3-2.6,4.4c-2.3,13.2-6.7,39.5-7,42.1c-0.3,3.5-2,5.5-8.4,6.1
	c-6.5,0.6-32,2.8-36.5,3c-4.5,0.2-7-1.3-8.1-4.5c-0.8-2.4-10-27-14.6-39.3c-0.7-1.8-2.4-3.4-4.3-4.8c-7.9-1.1-15.6-2.8-23-4.9
	c-2.6,0.4-5.3,1.2-6.6,2.6c-9.4,9.6-28.1,28.6-29.8,30.6c-2.3,2.7-4.8,3.4-10.4,0.3c-5.7-3.1-28-15.8-31.8-18.2
	c-3.8-2.4-5.1-5-4.1-8.3c0.7-2.5,7.2-27.8,10.5-40.6c0.6-2.5-0.6-6.2-1.7-8.7c-5.3-5.1-10.3-10.4-15-16.1c-2.3-1.1-4.9-1.9-6.7-1.6
	c-13.2,2.5-39.2,7.6-41.8,8.3c-3.4,1-5.8,0.1-8.7-5.7s-14.1-28.8-15.8-32.9c-1.8-4.1-1.3-7,1.3-9.2c2-1.6,21.7-18.8,31.5-27.4
	c2-1.7,3-5.4,3.5-8.2c-1.2-5.8-2.1-11.6-2.8-17.6c-1.3-1.9-2.8-3.7-4.4-4.4c-12.4-5.1-37.1-15.1-39.6-15.9c-3.4-1.1-4.9-3.1-4.2-9.6
	c0.7-6.4,4-31.8,4.7-36.3c0.8-4.4,2.7-6.6,6.1-7c2.5-0.3,28.5-3.9,41.5-5.7c2.3-0.3,4.8-2.4,6.7-4.2c1.9-4.9,4-9.7,6.3-14.4
	c-0.1-1.9-0.5-3.7-1.4-4.8c-7.9-10.8-23.6-32.3-25.3-34.3c-2.3-2.7-2.6-5.2,1.5-10.3c4-5.1,20.2-24.9,23.2-28.3
	c3-3.4,5.8-4.2,8.9-2.7c2.3,1.1,26.3,11.7,38.4,16.9c1.7,0.8,4.2,0.6,6.5,0.2c5.1-3.9,10.3-7.5,15.8-10.8c1.2-1.9,2-4,1.9-5.6
	c-0.8-13.4-2.3-40.1-2.6-42.7c-0.5-3.5,0.7-5.8,6.8-7.9c6.1-2.1,30.4-10,34.8-11.2c4.3-1.2,7.1-0.4,8.9,2.6
	c1.3,2.2,15.7,24.1,22.9,35.1c1.3,1.9,4.1,3.3,6.6,4.3c4.4-0.3,8.8-0.5,13.3-0.5c0.2,0,0.4,0,0.6,0c2.3-1.1,4.5-2.5,5.4-4.2
	c6.4-11.8,19.2-35.2,20.3-37.6c1.4-3.3,3.7-4.6,10-3.1c6.3,1.4,31.2,7.5,35.6,8.7s6.2,3.4,6.2,6.9c0,2.6,0.7,28.8,1,41.9
	c0.1,2.6,2.3,5.8,4.1,8c3.8,2,7.5,4.1,11.1,6.4c2.5,0.3,5,0.2,6.7-0.7c11.7-6.7,34.8-19.9,37-21.4c2.9-2,5.5-2,10.1,2.6
	c4.6,4.6,22.6,22.8,25.7,26.1c3,3.4,3.5,6.2,1.7,9.1c-1.3,2.2-14.5,24.8-21.1,36.2c-1.3,2.2-1.1,5.9-0.7,8.7
	c2.5,4.1,4.7,8.4,6.9,12.7c1.7,1.2,3.6,2.2,5.1,2.2c13.4,0.5,40.1,1.3,42.7,1.2c3.6-0.2,5.7,1.2,7.2,7.5c1.5,6.3,7.1,31.3,7.9,35.8
	C450,196.8,448.9,199.5,445.8,201.1z M226.1,92.3c-72.9,0-131.9,59.1-131.9,131.9s59.1,131.9,131.9,131.9s131.9-59.1,131.9-131.9
	S299,92.3,226.1,92.3z"/>
</svg>
