<?xml version="1.0" encoding="utf-8"?>
<!-- Generator: Adobe Illustrator 17.1.0, SVG Export Plug-In . SVG Version: 6.00 Build 0)  -->
<!DOCTYPE svg PUBLIC "-//W3C//DTD SVG 1.1//EN" "http://www.w3.org/Graphics/SVG/1.1/DTD/svg11.dtd">
<svg version="1.1" xmlns="http://www.w3.org/2000/svg" xmlns:xlink="http://www.w3.org/1999/xlink" x="0px" y="0px"
	 viewBox="0 0 841.89 595.28" enable-background="new 0 0 841.89 595.28" xml:space="preserve">
<g id="Layer_2">
</g>
<g id="Orange_Disc">
	<g id="Base">
		<path fill="#FFFFFF" d="M416.906,12.181c-57.972,0-113.662,17.471-161.049,50.525c-22.814,15.914-43.121,35.065-60.357,56.921
			c-15.154,19.216-27.717,40.266-37.387,62.633c-19.587,7.112-31.643,17.568-35.871,31.124l-0.062,0.199l-0.062,0.199l-0.054,0.201
			l-0.055,0.202l-0.233,0.86c-6.861,25.726-10.335,52.285-10.335,78.979c0,26.467,3.41,52.789,10.134,78.234l0.008,0.031
			l0.025,0.094l0.676,2.5l0.156,0.578l0.156,0.576l0.217,0.555l0.217,0.555c4.877,12.48,16.703,22.183,35.184,28.882
			c9.682,22.338,22.25,43.357,37.404,62.546c17.238,21.827,37.54,40.952,60.344,56.842c47.364,33.004,103.017,50.449,160.942,50.449
			s113.578-17.445,160.942-50.449c22.803-15.89,43.106-35.014,60.344-56.842c15.154-19.189,27.722-40.208,37.404-62.546
			c18.482-6.699,30.308-16.401,35.186-28.885l0.216-0.553l0.218-0.558l0.156-0.578l0.156-0.576l0.675-2.496l0.005-0.018l0.013-0.05
			l0.004-0.013l0.012-0.044c6.724-25.445,10.134-51.767,10.134-78.235c0-26.694-3.47-53.24-10.314-78.9l-0.252-0.933l-0.055-0.203
			l-0.056-0.205l-0.064-0.203l-0.062-0.2c-4.226-13.551-16.283-24.006-35.869-31.118c-9.67-22.367-22.233-43.416-37.387-62.633
			c-17.236-21.856-37.543-41.007-60.357-56.921C530.567,29.653,474.878,12.181,416.906,12.181L416.906,12.181z"/>
	</g>
	<path id="Keyline_1_" fill="#002776" d="M416.906,34.181c110.404,0,204.712,68.861,242.353,165.97
		c16.991,4.531,28.765,11.626,31.309,19.784l0.232,0.858c6.231,23.363,9.57,47.905,9.57,73.231c0,25.102-3.279,49.436-9.404,72.614
		l-0.676,2.5c-3.059,7.828-14.652,14.611-31.119,18.989c-37.7,96.989-131.949,165.74-242.266,165.74
		c-110.317,0-204.566-68.751-242.266-165.74c-16.467-4.378-28.06-11.161-31.119-18.989l-0.676-2.5
		c-6.125-23.177-9.404-47.511-9.404-72.614c0-25.326,3.34-49.868,9.571-73.231l0.232-0.858c2.544-8.158,14.318-15.253,31.309-19.784
		C212.193,103.042,306.502,34.181,416.906,34.181 M416.906,23.181c-55.71,0-109.224,16.787-154.756,48.547
		c-21.928,15.295-41.446,33.703-58.013,54.711c-15.581,19.759-28.285,41.485-37.81,64.65c-14.01,4.425-29.421,12.221-33.585,25.571
		l-0.062,0.2l-0.055,0.202l-0.232,0.858c-6.607,24.774-9.952,50.366-9.952,76.104c0,25.519,3.287,50.896,9.769,75.424l0.008,0.031
		l0.008,0.031l0.676,2.5l0.156,0.575l0.217,0.555c4.872,12.468,19.752,19.833,33.147,24.054
		c9.538,23.136,22.248,44.832,37.83,64.563c16.568,20.98,36.082,39.362,58,54.634c45.51,31.712,98.988,48.474,154.653,48.474
		s109.143-16.762,154.653-48.474c21.918-15.273,41.432-33.654,58-54.634c15.582-19.731,28.292-41.427,37.83-64.563
		c13.395-4.221,28.275-11.586,33.147-24.054l0.217-0.555l0.156-0.575l0.676-2.5l0.008-0.031l0.008-0.031
		c6.482-24.529,9.769-49.905,9.769-75.424c0-25.737-3.345-51.329-9.942-76.065l-0.242-0.896l-0.055-0.202l-0.062-0.2
		c-4.164-13.35-19.575-21.146-33.585-25.571c-9.524-23.165-22.228-44.891-37.81-64.65c-16.567-21.008-36.085-39.415-58.013-54.711
		C526.129,39.968,472.616,23.181,416.906,23.181L416.906,23.181z"/>
	<g id="Inner_1_">
		<path fill="#FF6319" d="M189.094,197.838c37.52-88.755,125.392-151.036,227.811-151.036c102.419,0,190.292,62.281,227.812,151.036
			c-66.056-10.899-144.142-17.2-227.812-17.2C333.236,180.638,255.15,186.939,189.094,197.838z M416.906,407.41
			c-83.669,0-161.756-6.301-227.811-17.2c37.52,88.755,125.392,151.036,227.811,151.036c102.419,0,190.292-62.281,227.812-151.036
			C578.662,401.109,500.575,407.41,416.906,407.41z"/>
	</g>
	<path id="GULF_1_" fill="#002776" d="M295.036,260.953c0,0-16.548-12.642-37.819-12.642c-11.634,0-53.915,2.601-53.915,47.121
		c0,44.52,42.82,43.785,42.82,43.785c20.175-0.962,19.694-4.928,19.694-4.928v-21.236l-23.355,0l0-28.479l71.416,0.001
		l-0.001,80.268l-48.06-0.001l0.007-3.822c0,0-13.273,7.78-36.788,7.78s-78.586-11.605-78.586-77.747
		c0-47.708,44.999-72.62,83.169-72.62c41.331,0,61.417,14.173,61.417,14.173V260.953z M344.876,284.575c0,0,0,50.285,0,55.281
		c0,4.996,0,28.944,45.065,28.944c0,0,15.56,0.023,35.855-7.881v3.969l46.962-0.001l0.001-80.405l-46.962-0.001
		c0,0,0.003,52.156-0.001,56.122c0,0-34.174,8.391-34.174-12.148c0-20.539-0.001-43.973-0.001-43.973h-46.745 M506.508,232.542
		l0.001,131.999l46.7,0l0-131.924l-46.701,0 M649.363,364.863l0.004-51.942h20.794v-28.346h-20.794v-16.402
		c0-9.449,10.926-6.431,10.926-6.431c7.972,1.707,14.669,6.522,14.669,6.522l0.043-27.161c0,0-12.931-11.82-46.18-11.82
		c-24.739,0-24.682,18.889-24.682,18.889c-0.013,6.277,0,36.121,0,36.121l-19.444-0.001l-0.001,28.88l19.444,0.037l0.001,51.655
		L649.363,364.863"/>
</g>
</svg>
