<?xml version="1.0" encoding="utf-8"?>
<!-- Generator: Adobe Illustrator 19.1.0, SVG Export Plug-In . SVG Version: 6.00 Build 0)  -->
<svg version="1.1" id="Capa_1" xmlns="http://www.w3.org/2000/svg" xmlns:xlink="http://www.w3.org/1999/xlink" x="0px" y="0px"
	 viewBox="-49 140.9 512.1 512.1" style="enable-background:new -49 140.9 512.1 512.1;" xml:space="preserve">
<style type="text/css">
	.st0{fill:#FF6015;}
</style>
<g>
	<path class="st0" d="M-48.9,644h70.6h0V520.4h-70.6V644z M-28.7,602.4c3.5-3.3,9-3.3,12.5,0c1.6,1.7,2.5,3.9,2.6,6.3
		c0,1.2-0.3,2.3-0.7,3.4c-0.4,1.1-1.1,2.1-1.9,2.9c-1.7,1.6-3.9,2.5-6.3,2.6c-3.6,0-6.8-2.1-8.2-5.4
		C-32,608.7-31.2,604.9-28.7,602.4z"/>
	<path class="st0" d="M443.1,540.7c-2.7-4-7.8-5.6-12.3-4.1L296,583.9c-3.9,1.4-8,2.1-12.1,2.1H219c-11.2,0-22.2,3.5-31.3,10
		l-5.3,3.7c-2.6,1.8-5.9,2.1-8.8,0.8c-2.9-1.3-4.8-4.1-5.1-7.2c-0.3-3.1,1.1-6.2,3.7-8l5.3-3.7c12.1-8.6,26.6-13.2,41.4-13.2h43.5
		c3.8-6.1,3.9-13.7,0.4-20l-0.7-1.2c-4.8-8.5-13.8-13.8-23.6-13.8h-38.1c-17.3-0.1-34-6.2-47.2-17.4c-10.1-8.4-22.8-13.1-35.9-13.2
		H113c-0.5,0-52,0.5-73.6,29.9V635c3.5,4.5,16.6,17.8,50.4,17.8h191.7c7.8,0,15.4-2.3,21.9-6.4L440,558.8c2.8-1.8,4.7-4.7,5.2-8
		C445.9,547.3,445.1,543.7,443.1,540.7z"/>
	<path class="st0" d="M448.6,233.5c-25.9-56.4-82.3-92.6-144.4-92.6c-68,0-128.4,43.2-150.4,107.5c-21.9,64.3-0.5,135.5,53.3,177
		v50.8c0,3.4,1.9,6.5,5,7.9c3,1.5,6.7,1.1,9.3-1l38.8-30.7c59.7,17.2,123.9-2,164.4-49.1C465.2,356.3,474.5,290,448.6,233.5z
		 M304.2,193.8c14.6,0,26.5,11.9,26.5,26.5s-11.9,26.5-26.5,26.5c-14.6,0-26.5-11.9-26.5-26.5C277.7,205.7,289.6,193.8,304.2,193.8z
		 M348.4,396.8c0,2.3-0.9,4.6-2.6,6.2c-1.7,1.7-3.9,2.6-6.2,2.6h-70.6c-2.3,0-4.6-0.9-6.2-2.6c-1.7-1.7-2.6-3.9-2.6-6.2v-35.3
		c0-2.3,0.9-4.6,2.6-6.2c1.7-1.7,3.9-2.6,6.2-2.6h8.8v-35.3h-8.8c-2.3,0-4.6-0.9-6.2-2.6c-1.7-1.7-2.6-3.9-2.6-6.2v-35.3
		c0-2.3,0.9-4.6,2.6-6.2c1.7-1.7,3.9-2.6,6.2-2.6h53c2.3,0,4.6,0.9,6.2,2.6c1.7,1.7,2.6,3.9,2.6,6.2v79.4h8.8c2.3,0,4.6,0.9,6.2,2.6
		c1.7,1.7,2.6,3.9,2.6,6.2V396.8z"/>
</g>
</svg>
