<?xml version="1.0" encoding="utf-8"?>
<!-- Generator: Adobe Illustrator 19.1.0, SVG Export Plug-In . SVG Version: 6.00 Build 0)  -->
<svg version="1.1" id="Layer_1" xmlns="http://www.w3.org/2000/svg" xmlns:xlink="http://www.w3.org/1999/xlink" x="0px" y="0px"
	 viewBox="-465 266 29 29" style="enable-background:new -465 266 29 29;" xml:space="preserve">
<style type="text/css">
	.st0{fill-rule:evenodd;clip-rule:evenodd;fill:#FFFFFF;}
</style>
<g>
	<path class="st0" d="M-438.3,295h-6.7c0-3.7,0-11.2,0-11.2s3.5,0,3.6,0c0.1,0,0.2,0,0.2-0.1c0-0.4,0.5-4.1,0.5-4.2
		c0-0.1,0-0.1-0.1-0.1c-0.1,0-4.1,0-4.1,0c-0.1,0-0.2-0.1-0.2-0.2c0-0.1,0-2.9,0-2.9c0-1,0.8-1.8,1.8-1.8c0.1,0,2.5,0,2.6,0
		c0,0,0,0,0,0c0,0,0,0,0,0c0.1,0,0.2,0,0.2-0.2c0-0.1,0-3.1,0-3.4s-0.3-0.4-0.7-0.4c-0.8-0.1-2.2-0.1-3.1-0.1
		c-2.9,0-5.3,2.4-5.3,5.3c0,0.5,0,3.7,0,3.7s-3.7,0-3.7,0s-0.1,0.1-0.1,0.1s0,4,0,4.1c0,0.1,0.1,0.1,0.1,0.1c0.8,0,3.7,0,3.7,0
		l0,11.2h-13.2c-1.3,0-2.3-1-2.3-2.3v-24.3c0-1.3,1-2.3,2.3-2.3h24.3c1.3,0,2.3,1,2.3,2.3v24.3C-436,294-437,295-438.3,295z"/>
</g>
</svg>
