<?xml version="1.0" encoding="utf-8"?>
<!-- Generator: Adobe Illustrator 19.1.0, SVG Export Plug-In . SVG Version: 6.00 Build 0)  -->
<svg version="1.1" id="Layer_1" xmlns="http://www.w3.org/2000/svg" xmlns:xlink="http://www.w3.org/1999/xlink" x="0px" y="0px"
	 viewBox="-467 261.5 23.1 39.5" style="enable-background:new -467 261.5 23.1 39.5;" xml:space="preserve">
<style type="text/css">
	.st0{fill:none;}
	.st1{fill:#F26224;}
</style>
<path class="st0" d="M-1243.5,886.4c-6.4,0-11.5-5.1-11.6-11.5c-0.1-7.6,5.2-12.7,7.6-19.4c1.8-4.8,0-8.7,0-8.7s4.2,1.4,7.4,5.9
	c5.6,7.8,8.1,13.6,8.1,22.2C-1231.9,881.3-1237.1,886.4-1243.5,886.4z M-1240.3,876.3c-1.7-3.4-4.8-1-6.5-5.2
	c-1.2-2.9,0.2-7.3,0.2-7.3s-5.3,5.8-4.2,11.5c1.3,6.8,6.2,7.5,8.3,6.6C-1240.1,881.1-1239.3,878.3-1240.3,876.3z"/>
<path class="st1" d="M-455.4,301c-6.4,0-11.5-5.1-11.6-11.5c-0.1-7.6,5.2-12.7,7.6-19.4c1.8-4.8,0-8.7,0-8.7s4.2,1.4,7.4,5.9
	c5.6,7.8,8.1,13.6,8.1,22.2C-443.9,296-449.1,301-455.4,301z M-452.2,291c-1.7-3.4-4.8-1-6.5-5.2c-1.2-2.9,0.2-7.3,0.2-7.3
	s-5.3,5.8-4.2,11.5c1.3,6.8,6.2,7.5,8.3,6.6C-452.1,295.7-451.2,292.8-452.2,291z"/>
</svg>
