<?xml version="1.0" encoding="utf-8"?>
<!-- Generator: Adobe Illustrator 19.1.0, SVG Export Plug-In . SVG Version: 6.00 Build 0)  -->
<svg version="1.1" id="Layer_1" xmlns="http://www.w3.org/2000/svg" xmlns:xlink="http://www.w3.org/1999/xlink" x="0px" y="0px"
	 viewBox="-360 214.8 237.9 133.2" style="enable-background:new -360 214.8 237.9 133.2;" xml:space="preserve">
<style type="text/css">
	.st0{fill:#F26425;}
</style>
<path class="st0" d="M-154.7,302.3l-27.9-75.4l32.6-12.1l27.9,75.4L-154.7,302.3z M-187.6,299.9l5,11c0,0,4.2,8.8-1,18
	c-3.2,5.6-10,4-10,4s-0.7,4.1-4,6c-5.2,3-10,1-10,1s-1.5,4.1-6,5s-7-2-7-2s-3.1,4.3-7,5c-4.1,0.8-9-2-9-2l-4-3l3-5c0,0,3.5,3,5,4
	c2.3,1.6,7.9,0.1,6-4c-0.8-1.7-2.9-6.8-4-9c-1.5-3.3,3.2-6.2,5-3c1.4,2.4,3.8,7.2,6,11s9,1.7,7-3s-6.3-12.2-7-14
	c-1.3-3.2,4.1-6.8,6-3c0.9,1.9,5.6,10.6,7,14c3.1,6.1,9.6,1.9,7-3c-2.2-5.9-6.9-13.4-8-16c-1.9-4.6,3.8-8.9,7-2
	c3.7,7.9,5.4,11.2,7,14c5.2,9,10-4.1,4-13c-1.2-1.8-13-27-13-27l-34-17c0,0-17.1-0.5-21,1c-1.6,1.9-8.3,11-14,16
	c-4.6,4.1-8.4,4.6-10,4c-3.5-1.3-2.8-8.7-2-11s11.6-19.7,14-23s8.2-5.1,10-6s18.2-6.3,23-7s13.8,0.5,17,1s4.3,1.3,12,3
	c5.6-2.4,21-9,21-9l22,56L-187.6,299.9z M-297.6,240.9l3-5c0,0,14,5.7,16,7c6.1-5,20.3-5.5,28-3c-13.8,2.5-27,9-27,9L-297.6,240.9z
	 M-318.6,297.9c0,0,1.1-4.4,2-6c15.8,3.6,18,8,18,8s-1.8,2.1-4,4C-308.6,299.7-318.6,297.9-318.6,297.9z M-360,289.2l28.7-74
	l32.2,12.5l-28.7,74L-360,289.2z M-291.3,301c2.4-3.3,6.9-4.1,10-1.8c2.5,1.8,3.3,5,2.3,7.9c3.5-3.5,8.8-4.2,12.3-1.5
	c2.3,1.8,3.4,4.6,3.3,7.5c2.4-1.6,5.6-1.7,8,0.1c3.1,2.3,3.7,6.8,1.2,10l-0.5,0.7c2.8-2.4,7-2.8,10-0.6c3.5,2.5,4.1,7.3,1.4,10.8
	l-7.2,9.4c-2.7,3.5-7.7,4.4-11.2,1.9c-2.4-1.7-3.4-4.6-2.9-7.4l-2.1,3c-2.4,3.3-6.9,4.1-10,1.8c-2.5-1.8-3.3-5.1-2.3-8
	c-3.1,1.5-6.7,1.4-9.4-0.6c-3.2-2.4-4.1-6.8-2.6-10.8c-2.5,2.1-6.1,2.3-8.7,0.4c-3.1-2.3-3.7-6.8-1.2-10L-291.3,301z"/>
</svg>
