<?xml version="1.0" encoding="utf-8"?>
<!-- Generator: Adobe Illustrator 19.1.0, SVG Export Plug-In . SVG Version: 6.00 Build 0)  -->
<svg version="1.1" id="Layer_1" xmlns="http://www.w3.org/2000/svg" xmlns:xlink="http://www.w3.org/1999/xlink" x="0px" y="0px"
	 viewBox="0 0 480 480" style="enable-background:new 0 0 480 480;" xml:space="preserve">
<style type="text/css">
	.st0{fill-rule:evenodd;clip-rule:evenodd;fill:#FF691E;}
</style>
<path class="st0" d="M382.6,0c7.8,0.5,15.9-0.7,23,1c32.6,7.8,55.1,24.8,67.1,53.2c4.4,10.5,7.4,21.5,7.4,36.7
	c-0.1,3.1-0.1,6.2-0.2,9.3c-1.9,8.4-3.1,16.2-5.7,23.5c-8.3,23.2-27.6,37.9-43.4,53.7c-15.1,15.1-30.2,30.2-45.3,45.3
	c-12.6,12.6-24.6,25.9-43.1,32.6c-11.7,4.2-32.3,8.7-48.3,4.9c-5.8-1.4-11.6-3-16.9-4.7c0.8-2.4,9.7-10.1,12-12.3
	c10.5-10.6,21.1-21.2,31.6-31.8c14.8-5.1,22.9-15.6,32.8-25.5c15-15,30.1-30.1,45.1-45.1c9.1-9.1,23-20.1,28.9-31.6
	c12.1-23.6-2.5-48.7-19.4-56.8c-3-1.1-6.1-2.1-9.1-3.2C372.2,42,354.7,66.1,343,77.7c-21.7,21.7-43.5,43.4-65.2,65.1
	c-2.4,3.1-4.9,6.4-6.6,10.1c-0.6,1.6-1.1,3.3-1.7,4.9c-14.9,14.9-29.8,29.7-44.8,44.6c-0.2-0.1-0.5-0.2-0.7-0.3
	c-0.9-2.9-1.8-5.9-2.7-8.8c-0.8-4.4-1.6-8.9-2.4-13.3c0-1.7,0-3.5,0-5.2c-1.9-12.5,2.1-27.1,5.6-35.8c8-20.2,19.5-31.2,33.5-45.1
	c9.6-9.6,19.1-19.2,28.7-28.7c8.7-8.7,17.5-17.5,26.2-26.2c10.7-10.7,20.6-20.5,34-28.6c6.5-3.9,14.8-6.3,22.8-8.5
	C374,1.2,378.3,0.6,382.6,0z M325.6,127.9c3.5,0.2,6.9,0,10,1c13.5,4.6,22.2,22.5,12.3,37C297.4,216.6,246.8,267.3,196.2,318
	c-3.3,3.2-6.5,6.3-9.8,9.5c-3,4-6.8,7.3-10.3,10.8c-4.2,4.2-8.2,9.3-14,11.8c-9.5,4.2-20,0.6-25.8-4.1c-6.2-4.9-10.8-17.7-6.3-28.1
	c2.7-6.1,7.9-10.1,12.3-14.5c6.5-6.6,13.1-13.2,19.6-19.8c35.3-35.3,70.6-70.5,105.9-105.8c10.2-10.3,20.5-20.5,30.7-30.8
	c5.2-5.2,10.1-11.7,16.4-15.7C318.1,129.5,321.7,129.5,325.6,127.9z M167.7,218.7c12.6-0.2,26.7,1.2,35,5.6c0,0.2,0,0.3,0,0.5
	c-14.9,14.9-29.7,29.7-44.6,44.6c-3.9,2-7.6,2.8-11,5.1c-6.7,4.6-12.1,11.4-17.7,17.1c-10.9,10.9-21.7,21.7-32.6,32.6
	c-13,13-26,26-39,39c-3.5,4.9-6.4,10.4-8.3,16.9c-5.2,18.3,6.4,36.5,15.9,43.3c3.7,2.7,8.5,5.4,13.3,6.8
	c29.1,8.1,44.1-13.4,57.3-26.5c15.4-15.4,30.9-30.9,46.3-46.3c7.3-7.3,17.7-15.7,23.5-24.2c1.4-2.5,2.7-5,4.1-7.4
	c0.6-1.7,1.2-3.4,1.9-5.1c9.9-9.8,19.7-19.6,29.6-29.4c2.6-2.6,11.8-13.3,14.5-14.2c1.7,5.3,3.3,11.1,4.7,16.9
	c3.8,16.1-0.7,36.6-4.9,48.3c-8.5,24-30.3,40.8-46.8,57.3c-12,12.1-24.1,24.1-36.1,36.2c-9.6,9.6-18.7,20.7-30.1,28.4
	c-6.2,4.2-13.2,7.4-20.4,10.6c-13.9,6.3-42.2,7.2-57.8,1.7c-11.1-3.9-20.4-8.7-29.1-14.9c-16.9-11.9-28-30.9-33.3-54.6
	c-2-8.9-2.8-23.2-0.7-33c1.6-6.9,3.3-13.7,5.7-19.8c6.3-15.7,17.6-27.9,29.2-38.4c5.8-5.2,10.8-11.3,16.6-16.6
	c5-5.1,9.9-10.1,14.9-15.2c9.3-9.2,18.7-18.5,28-27.7c8.2-8.3,16-17,26-23.5c8.6-5.5,18.6-9.4,29.7-12.3c3.5-0.6,7-1.1,10.5-1.7
	C163.8,218.8,165.8,218.7,167.7,218.7z"/>
</svg>
