<?xml version="1.0" encoding="utf-8"?>
<!-- Generator: Adobe Illustrator 19.1.0, SVG Export Plug-In . SVG Version: 6.00 Build 0)  -->
<svg version="1.1" id="Layer_1" xmlns="http://www.w3.org/2000/svg" xmlns:xlink="http://www.w3.org/1999/xlink" x="0px" y="0px"
	 viewBox="0 0 692.3 480" style="enable-background:new 0 0 692.3 480;" xml:space="preserve">
<style type="text/css">
	.st0{fill-rule:evenodd;clip-rule:evenodd;fill:#FF691E;}
</style>
<path class="st0" d="M678.6,480H13.7C6.1,480,0,473.8,0,466.1V14.7C0,7.1,6.1,0.8,13.7,0.8h664.9c7.5,0,13.7,6.2,13.7,13.9v451.4
	C692.2,473.8,686.1,480,678.6,480z M652.9,452.2l-201.2-266l-105.2,71.7l-106.8-72.7L38.2,452.2H652.9z M27.3,420.9L217,169.7
	L27.3,40.8V420.9z M58.7,28.6l287.4,195.5L633.5,28.6H58.7z M474.5,170.6l190.4,251.8V40.8L474.5,170.6z"/>
</svg>
