<?xml version="1.0" encoding="utf-8"?>
<!-- Generator: Adobe Illustrator 19.1.0, SVG Export Plug-In . SVG Version: 6.00 Build 0)  -->
<svg version="1.1" id="Layer_1" xmlns="http://www.w3.org/2000/svg" xmlns:xlink="http://www.w3.org/1999/xlink" x="0px" y="0px"
	 viewBox="0 0 645.1 315.7" style="enable-background:new 0 0 645.1 315.7;" xml:space="preserve">
<style type="text/css">
	.st0{fill-rule:evenodd;clip-rule:evenodd;fill:#959595;}
</style>
<path class="st0" d="M0,315.7V0h645.1v315.7H0z M438.8,77.3l-57.6,26.4l-58.6-23.2l-58.6,23.2l-57.6-26.4l-35.2,122.5l76.8,48.6
	l74.6-35.9l74.6,35.9l76.8-48.6L438.8,77.3z M427,103.8l25.6,88.7l-49,29.6l-11.7-102.5L427,103.8z M331.1,104.8l42.6,15.8
	l11.7,101.4l-54.4-25.4V104.8z M271.4,120.7l42.6-15.8v91.9l-54.4,25.4L271.4,120.7z M192.5,192.5l25.6-88.7l35.2,15.8l-11.7,102.5
	L192.5,192.5z"/>
</svg>
