<?xml version="1.0" encoding="utf-8"?>
<!-- Generator: Adobe Illustrator 19.1.0, SVG Export Plug-In . SVG Version: 6.00 Build 0)  -->
<svg version="1.1" id="Layer_1" xmlns="http://www.w3.org/2000/svg" xmlns:xlink="http://www.w3.org/1999/xlink" x="0px" y="0px"
	 viewBox="0 0 1603.3 784.8" style="enable-background:new 0 0 1603.3 784.8;" xml:space="preserve">
<style type="text/css">
	.st0{fill-rule:evenodd;clip-rule:evenodd;fill:#FF6319;}
</style>
<path class="st0" d="M0,784.8V0h1603.3v784.8H0z M1090.5,192.2l-143.1,65.6l-145.7-57.8l-145.7,57.8l-143.1-65.6l-87.4,304.6
	l190.8,120.8l185.5-89.3l185.5,89.3l190.8-120.8L1090.5,192.2z M1061.3,257.9l63.6,220.6L1003,552l-29.1-254.7L1061.3,257.9z
	 M822.9,260.5l106,39.4L958,552l-135.1-63V260.5z M674.5,299.9l106-39.4v228.4l-135.1,63L674.5,299.9z M478.4,478.4L542,257.9
	l87.4,39.4L600.3,552L478.4,478.4z"/>
</svg>
