
<svg xmlns="http://www.w3.org/2000/svg" version="1.1" xmlns:xlink="http://www.w3.org/1999/xlink" preserveAspectRatio="none" x="0px" y="0px" width="1400px" height="1200px" viewBox="0 0 1400 1200">
<defs>
<radialGradient id="Gradient_1" gradientUnits="userSpaceOnUse" cx="0" cy="0" r="168.07499999999993" fx="0" fy="0" gradientTransform="matrix( 1.0000000000000004, 0, 0, 1.0000000000000004, 894.85,310.2) " spreadMethod="pad">
<stop  offset="0%" stop-color="#F8C12E"/>

<stop  offset="100%" stop-color="#FF6319"/>
</radialGradient>

<radialGradient id="Gradient_2" gradientUnits="userSpaceOnUse" cx="0" cy="0" r="267.26250000000005" fx="0" fy="0" gradientTransform="matrix( 0.9999999999999998, 0, 0, 0.9999999999999998, 1200,735.4) " spreadMethod="pad">
<stop  offset="0%" stop-color="#F8C12E"/>

<stop  offset="100%" stop-color="#FF6319"/>
</radialGradient>

<radialGradient id="Gradient_3" gradientUnits="userSpaceOnUse" cx="0" cy="0" r="227.20940231425286" fx="0" fy="0" gradientTransform="matrix( 0.4429834283917142, 0.8965297999343484, -1.345069776546078, 0.6646401885743044, 794.8,820.45) " spreadMethod="pad">
<stop  offset="0%" stop-color="#012453"/>

<stop  offset="100%" stop-color="#012453" stop-opacity="0"/>
</radialGradient>

<linearGradient id="Gradient_4" gradientUnits="userSpaceOnUse" x1="983.55" y1="948.1" x2="983.55" y2="217.60000000000002" spreadMethod="pad">
<stop  offset="0%" stop-color="#FFFFFF" stop-opacity="0"/>

<stop  offset="15.686274509803921%" stop-color="#FFFFFF"/>

<stop  offset="88.23529411764706%" stop-color="#FFFFFF"/>

<stop  offset="100%" stop-color="#FFFFFF" stop-opacity="0"/>
</linearGradient>

<linearGradient id="Gradient_5" gradientUnits="userSpaceOnUse" x1="963.9" y1="887.825" x2="963.9" y2="212.67499999999995" spreadMethod="pad">
<stop  offset="0%" stop-color="#FFFFFF" stop-opacity="0"/>

<stop  offset="15.686274509803921%" stop-color="#FFFFFF"/>

<stop  offset="88.23529411764706%" stop-color="#FFFFFF"/>

<stop  offset="100%" stop-color="#FFFFFF" stop-opacity="0"/>
</linearGradient>

<linearGradient id="Gradient_6" gradientUnits="userSpaceOnUse" x1="964.95" y1="847.925" x2="964.95" y2="215.17499999999995" spreadMethod="pad">
<stop  offset="0%" stop-color="#FFFFFF" stop-opacity="0"/>

<stop  offset="15.686274509803921%" stop-color="#FFFFFF"/>

<stop  offset="88.23529411764706%" stop-color="#FFFFFF"/>

<stop  offset="100%" stop-color="#FFFFFF" stop-opacity="0"/>
</linearGradient>

<linearGradient id="Gradient_7" gradientUnits="userSpaceOnUse" x1="951.1" y1="831.0250000000001" x2="951.1" y2="208.875" spreadMethod="pad">
<stop  offset="0%" stop-color="#FFFFFF" stop-opacity="0"/>

<stop  offset="15.686274509803921%" stop-color="#FFFFFF"/>

<stop  offset="88.23529411764706%" stop-color="#FFFFFF"/>

<stop  offset="100%" stop-color="#FFFFFF" stop-opacity="0"/>
</linearGradient>

<linearGradient id="Gradient_8" gradientUnits="userSpaceOnUse" x1="945.1" y1="832.2375000000001" x2="945.1" y2="207.66250000000002" spreadMethod="pad">
<stop  offset="0%" stop-color="#FFFFFF" stop-opacity="0"/>

<stop  offset="15.686274509803921%" stop-color="#FFFFFF"/>

<stop  offset="88.23529411764706%" stop-color="#FFFFFF"/>

<stop  offset="100%" stop-color="#FFFFFF" stop-opacity="0"/>
</linearGradient>

<linearGradient id="Gradient_9" gradientUnits="userSpaceOnUse" x1="941.8" y1="832.2375000000001" x2="941.8" y2="207.66250000000002" spreadMethod="pad">
<stop  offset="0%" stop-color="#FFFFFF" stop-opacity="0"/>

<stop  offset="15.686274509803921%" stop-color="#FFFFFF"/>

<stop  offset="88.23529411764706%" stop-color="#FFFFFF"/>

<stop  offset="100%" stop-color="#FFFFFF" stop-opacity="0"/>
</linearGradient>

<linearGradient id="Gradient_10" gradientUnits="userSpaceOnUse" x1="938.8" y1="832.2375000000001" x2="938.8" y2="207.66250000000002" spreadMethod="pad">
<stop  offset="0%" stop-color="#FFFFFF" stop-opacity="0"/>

<stop  offset="15.686274509803921%" stop-color="#FFFFFF"/>

<stop  offset="88.23529411764706%" stop-color="#FFFFFF"/>

<stop  offset="100%" stop-color="#FFFFFF" stop-opacity="0"/>
</linearGradient>

<linearGradient id="Gradient_11" gradientUnits="userSpaceOnUse" x1="960.7624999999999" y1="12.712499999999977" x2="961.0375" y2="477.6875" spreadMethod="pad">
<stop  offset="0%" stop-color="#FFF46D" stop-opacity="0"/>

<stop  offset="15.686274509803921%" stop-color="#FFF46D"/>

<stop  offset="72.15686274509804%" stop-color="#FFF46D"/>

<stop  offset="94.11764705882354%" stop-color="#FFF46D" stop-opacity="0"/>
</linearGradient>

<linearGradient id="Gradient_12" gradientUnits="userSpaceOnUse" x1="932.35" y1="0.6624999999999943" x2="932.35" y2="477.63750000000005" spreadMethod="pad">
<stop  offset="0%" stop-color="#FFF46D" stop-opacity="0"/>

<stop  offset="15.686274509803921%" stop-color="#FFF46D"/>

<stop  offset="72.15686274509804%" stop-color="#FFF46D"/>

<stop  offset="94.11764705882354%" stop-color="#FFF46D" stop-opacity="0"/>
</linearGradient>

<linearGradient id="Gradient_13" gradientUnits="userSpaceOnUse" x1="926.5" y1="0.6624999999999943" x2="926.5" y2="477.63750000000005" spreadMethod="pad">
<stop  offset="0%" stop-color="#FFF46D" stop-opacity="0"/>

<stop  offset="15.686274509803921%" stop-color="#FFF46D"/>

<stop  offset="72.15686274509804%" stop-color="#FFF46D"/>

<stop  offset="94.11764705882354%" stop-color="#FFF46D" stop-opacity="0"/>
</linearGradient>

<linearGradient id="Gradient_14" gradientUnits="userSpaceOnUse" x1="920.95" y1="0.6500000000000057" x2="920.95" y2="477.65" spreadMethod="pad">
<stop  offset="0%" stop-color="#FFF46D" stop-opacity="0"/>

<stop  offset="15.686274509803921%" stop-color="#FFF46D"/>

<stop  offset="72.15686274509804%" stop-color="#FFF46D"/>

<stop  offset="94.11764705882354%" stop-color="#FFF46D" stop-opacity="0"/>
</linearGradient>

<linearGradient id="Gradient_15" gradientUnits="userSpaceOnUse" x1="914.9" y1="1.674999999999983" x2="914.6999999999999" y2="477.625" spreadMethod="pad">
<stop  offset="0%" stop-color="#FFF46D" stop-opacity="0"/>

<stop  offset="15.686274509803921%" stop-color="#FFF46D"/>

<stop  offset="72.15686274509804%" stop-color="#FFF46D"/>

<stop  offset="94.11764705882354%" stop-color="#FFF46D" stop-opacity="0"/>
</linearGradient>

<linearGradient id="Gradient_16" gradientUnits="userSpaceOnUse" x1="909.1" y1="0.6500000000000057" x2="909.1" y2="477.65" spreadMethod="pad">
<stop  offset="0%" stop-color="#FFF46D" stop-opacity="0"/>

<stop  offset="15.686274509803921%" stop-color="#FFF46D"/>

<stop  offset="72.15686274509804%" stop-color="#FFF46D"/>

<stop  offset="94.11764705882354%" stop-color="#FFF46D" stop-opacity="0"/>
</linearGradient>

<linearGradient id="Gradient_17" gradientUnits="userSpaceOnUse" x1="902.25" y1="0.6500000000000057" x2="902.25" y2="477.65" spreadMethod="pad">
<stop  offset="0%" stop-color="#FFF46D" stop-opacity="0"/>

<stop  offset="15.686274509803921%" stop-color="#FFF46D"/>

<stop  offset="72.15686274509804%" stop-color="#FFF46D"/>

<stop  offset="94.11764705882354%" stop-color="#FFF46D" stop-opacity="0"/>
</linearGradient>

<linearGradient id="Gradient_18" gradientUnits="userSpaceOnUse" x1="1055.25" y1="470.85" x2="1055.25" y2="1197.5500000000002" spreadMethod="pad">
<stop  offset="0%" stop-color="#FFF46D" stop-opacity="0"/>

<stop  offset="15.686274509803921%" stop-color="#FFF46D"/>

<stop  offset="72.15686274509804%" stop-color="#FFF46D"/>

<stop  offset="94.11764705882354%" stop-color="#FFF46D" stop-opacity="0"/>
</linearGradient>

<linearGradient id="Gradient_19" gradientUnits="userSpaceOnUse" x1="1051.35" y1="470.85" x2="1051.35" y2="1197.5500000000002" spreadMethod="pad">
<stop  offset="0%" stop-color="#FFF46D" stop-opacity="0"/>

<stop  offset="15.686274509803921%" stop-color="#FFF46D"/>

<stop  offset="72.15686274509804%" stop-color="#FFF46D"/>

<stop  offset="94.11764705882354%" stop-color="#FFF46D" stop-opacity="0"/>
</linearGradient>

<linearGradient id="Gradient_20" gradientUnits="userSpaceOnUse" x1="1048.05" y1="470.85" x2="1048.05" y2="1197.5500000000002" spreadMethod="pad">
<stop  offset="0%" stop-color="#FFF46D" stop-opacity="0"/>

<stop  offset="15.686274509803921%" stop-color="#FFF46D"/>

<stop  offset="72.15686274509804%" stop-color="#FFF46D"/>

<stop  offset="94.11764705882354%" stop-color="#FFF46D" stop-opacity="0"/>
</linearGradient>

<linearGradient id="Gradient_21" gradientUnits="userSpaceOnUse" x1="997.05" y1="470.85" x2="997.05" y2="1197.5500000000002" spreadMethod="pad">
<stop  offset="0%" stop-color="#FFF46D" stop-opacity="0"/>

<stop  offset="15.686274509803921%" stop-color="#FFF46D"/>

<stop  offset="72.15686274509804%" stop-color="#FFF46D"/>

<stop  offset="94.11764705882354%" stop-color="#FFF46D" stop-opacity="0"/>
</linearGradient>

<linearGradient id="Gradient_22" gradientUnits="userSpaceOnUse" x1="946.05" y1="470.85" x2="946.05" y2="1197.5500000000002" spreadMethod="pad">
<stop  offset="0%" stop-color="#FFF46D" stop-opacity="0"/>

<stop  offset="15.686274509803921%" stop-color="#FFF46D"/>

<stop  offset="72.15686274509804%" stop-color="#FFF46D"/>

<stop  offset="94.11764705882354%" stop-color="#FFF46D" stop-opacity="0"/>
</linearGradient>

<g id="Layer27_0_FILL">
<path fill="url(#Gradient_1)" stroke="none" d="
M 934.65 0.05
L 818.6 0.05
Q 776.2 83.35 798.95 178.1 839.85 346.85 1004.7 482.6 900.2 324 887.65 209.5 875.05 95 934.65 0.05 Z"/>

<path fill="url(#Gradient_2)" stroke="none" d="
M 1399.15 1201.25
Q 1388 1068.15 1353.3 965.55 1318.55 862.95 1293.65 811.5 1215.2 634.75 1013.85 431 1211.95 675.65 1154 840.55 1097.25 1066.45 809.9 1201.25
L 1399.15 1201.25 Z"/>
</g>

<g id="Layer26_0_FILL">
<path fill="#8E9090" stroke="none" d="
M 1121.2 588.65
Q 1109.2 566 1095.7 546.55
L 1084.55 531.6
Q 1178.45 674.15 1159.6 810.25 1131.4 1014.4 851.45 1179.6
L 809.9 1201.25 876.5 1201.25 907.35 1180.2
Q 1064.65 1071.9 1128.15 945.95 1178.9 845.2 1167.6 737.85 1159.5 661.1 1121.2 588.65
M 792.3 13
Q 789.65 19.2 788.95 21.65 740.1 165 843.15 319.05 905.9 413.05 1010.05 492
L 1003.75 480.9
Q 1001.15 478.65 998.45 476.3 982.25 462.4 971.05 452.15 890.1 378.3 845.5 298.55 809.05 233.25 798.25 166.65 790.1 116.45 797 69.9 801.5 39.55 809.65 21.75 810.1 20.8 819.4 0.05
L 799.35 0.05
Q 796.1 4.15 792.3 13 Z"/>
</g>

<g id="Layer25_0_FILL">
<path fill="url(#Gradient_3)" stroke="none" d="
M 1027.8 449.3
L 1018.25 435.25
Q 1088.95 590.4 950.85 722.6 812.7 854.75 431.25 909.45 458.95 1197.6 816.45 1199.6 1131.4 1014.4 1157.15 823.9 1182.85 633.35 1027.8 449.3 Z"/>
</g>

<path id="Layer24_0_1_STROKES" stroke="url(#Gradient_4)" stroke-width="2" stroke-linejoin="round" stroke-linecap="round" fill="none" d="
M 1047.95 955.2
Q 1147.7 835.5 1136.2 700.8 1125.35 574.3 1017.75 444.3 973.1 390.35 944.95 329.5 917.7 270.65 909.35 213.1"/>

<path id="Layer23_0_1_STROKES" stroke="url(#Gradient_5)" stroke-width="2" stroke-linejoin="round" stroke-linecap="round" fill="none" d="
M 1042.7 893.3
Q 1120 791.6 1115.95 683.7 1111.6 567.75 1013.4 444.3 969.9 389.4 942.35 329.15 915.8 271.15 906.2 213.1"/>

<path id="Layer22_0_1_STROKES" stroke="url(#Gradient_6)" stroke-width="2" stroke-linejoin="round" stroke-linecap="round" fill="none" d="
M 1022.05 855.4
Q 1061.25 805.9 1079.85 758.05 1098.85 709.25 1097.45 659.6 1096.05 609.55 1073.9 556.25 1051.9 503.2 1008.3 444.3 965.7 386.85 939.1 328.35 912.65 270 903.2 213.1"/>

<path id="Layer21_0_1_STROKES" stroke="url(#Gradient_7)" stroke-width="2" stroke-linejoin="round" stroke-linecap="round" fill="none" d="
M 988.5 839.85
Q 1086.35 739.45 1080.75 631.6 1078.35 585 1056.7 535.25 1038 492.3 1003.65 444.3 919.1 326.2 900.35 213.1"/>

<path id="Layer20_0_1_STROKES" stroke="url(#Gradient_8)" stroke-width="2" stroke-linejoin="round" stroke-linecap="round" fill="none" d="
M 954 829.35
Q 1064.85 731.35 1067.25 627.95 1068.25 582.6 1048.75 534.2 1031.7 491.9 997.65 444.3 917 331.65 897.35 213.1"/>

<path id="Layer19_0_1_STROKES" stroke="url(#Gradient_9)" stroke-width="2" stroke-linejoin="round" stroke-linecap="round" fill="none" d="
M 901.2 827.85
Q 1034.85 737.05 1050.2 632.55 1063.15 544.6 991.95 444.3 951.9 387.8 927.15 328.5 903.35 271.35 894.35 213.1"/>

<path id="Layer18_0_1_STROKES" stroke="url(#Gradient_10)" stroke-width="2" stroke-linejoin="round" stroke-linecap="round" fill="none" d="
M 847.8 827.85
Q 1009.05 733.05 1034.05 628 1044.85 582.5 1030.6 533.75 1018.25 491.4 986.25 444.3 946.3 385.3 922.6 327.65 898.65 269.3 891.65 213.1"/>

<path id="Layer16_0_1_STROKES" stroke="url(#Gradient_11)" stroke-width="2" stroke-linejoin="round" stroke-linecap="round" fill="none" d="
M 1000.85 477.65
Q 932.4 383.8 900.7 295.7 877.9 232.45 875.1 175.1 872.8 129.7 885.2 85.15 895 50.05 918.9 0.65"/>

<path id="Layer15_0_1_STROKES" stroke="url(#Gradient_12)" stroke-width="2" stroke-linejoin="round" stroke-linecap="round" fill="none" d="
M 1000.85 477.65
Q 929.65 390.2 893.9 299.45 867.05 231.45 864.3 175.1 861.95 128.4 872.6 85.15 881.95 47.2 904.5 0.65"/>

<path id="Layer14_0_1_STROKES" stroke="url(#Gradient_13)" stroke-width="2" stroke-linejoin="round" stroke-linecap="round" fill="none" d="
M 1000.85 477.65
Q 925.7 393.05 886.85 300.6 858.95 234.25 853.5 175.1 849.15 128.55 858.7 85.4 867.25 46.65 889.5 0.65"/>

<path id="Layer13_0_1_STROKES" stroke="url(#Gradient_14)" stroke-width="2" stroke-linejoin="round" stroke-linecap="round" fill="none" d="
M 1000.85 477.65
Q 920.5 392.55 878.65 300.45 848.05 233.2 842.7 175.1 838.2 127.05 846.1 85.4 853.75 44.75 875.1 0.65"/>

<path id="Layer12_0_1_STROKES" stroke="url(#Gradient_15)" stroke-width="2" stroke-linejoin="round" stroke-linecap="round" fill="none" d="
M 1000.85 477.65
Q 916.35 394.1 871.1 301.4 838.05 233.7 831.3 175.1 825.95 129.05 832.8 87.05 839.9 43.6 860.7 0.65"/>

<path id="Layer11_0_1_STROKES" stroke="url(#Gradient_16)" stroke-width="2" stroke-linejoin="round" stroke-linecap="round" fill="none" d="
M 1000.85 477.65
Q 911.25 394.85 862.85 301.85 843.85 265.3 832.65 229.65 823.4 200.25 820.5 175.1 814.8 126.3 819.6 87.05 825.1 42 845.1 0.65"/>

<path id="Layer10_0_1_STROKES" stroke="url(#Gradient_17)" stroke-width="2" stroke-linejoin="round" stroke-linecap="round" fill="none" d="
M 1000.85 477.65
Q 902.9 389.9 853.25 298.25 820.6 238 809.1 175.1 800.65 128.55 805.4 87.15 810.5 43.05 831 0.65"/>

<path id="Layer8_0_1_STROKES" stroke="url(#Gradient_18)" stroke-width="2" stroke-linejoin="round" stroke-linecap="round" fill="none" d="
M 1041.45 470.55
Q 1087.95 514.7 1130.3 580 1144.95 602.6 1161.9 632.1 1171.2 648.4 1186.8 676.05 1210.4 717.2 1226.35 749.85 1244.3 786.65 1262.65 832.95 1282.5 883.2 1295.65 941.55 1317.2 1037.05 1319 1144.05"/>

<path id="Layer7_0_1_STROKES" stroke="url(#Gradient_18)" stroke-width="2" stroke-linejoin="round" stroke-linecap="round" fill="none" d="
M 1041.45 470.55
Q 1088.2 517.1 1128.15 580.8 1149.8 615.3 1180.8 676.05 1204.8 723.05 1216.65 750.75 1233.2 789.35 1245.85 832.95 1262.55 890.95 1268.75 942.8 1280.3 1039 1265 1144.05"/>

<path id="Layer6_0_1_STROKES" stroke="url(#Gradient_19)" stroke-width="2" stroke-linejoin="round" stroke-linecap="round" fill="none" d="
M 1041.45 470.55
Q 1088.65 519.2 1126.55 581.75 1150.1 620.6 1175.7 676.05 1198.4 725.25 1208.2 752 1222.5 791.15 1229.95 832.95 1236.2 868.35 1237.35 876.4 1242.05 909.8 1242.65 943.1 1244.4 1039.4 1212.75 1143.4"/>

<path id="Layer5_0_1_STROKES" stroke="url(#Gradient_20)" stroke-width="2" stroke-linejoin="round" stroke-linecap="round" fill="none" d="
M 1041.45 470.55
Q 1088.55 520.8 1124.6 582 1149.35 624 1171.2 676.05 1189.25 719.05 1198.7 752 1209.15 788.3 1215.25 832.95 1223.6 892.95 1217.45 952.15 1207.35 1050.1 1159.6 1143.1"/>

<path id="Layer4_0_1_STROKES" stroke="url(#Gradient_20)" stroke-width="2" stroke-linejoin="round" stroke-linecap="round" fill="none" d="
M 1041.45 470.55
Q 1089.15 525 1122.85 582.65 1150.7 630.35 1166.7 676.05 1182.45 720.85 1189.7 751.8 1198.55 789.3 1201.85 833.05 1206.05 889.5 1190.85 954.25 1168.25 1050.65 1106.45 1141.7"/>

<path id="Layer3_0_1_STROKES" stroke="url(#Gradient_21)" stroke-width="2" stroke-linejoin="round" stroke-linecap="round" fill="none" d="
M 1041.45 470.55
Q 1089.4 526.55 1121.35 583.15 1148.05 630.4 1162.5 676.05 1176.15 719.3 1181.9 753.15 1188.2 790.8 1187.75 833.05 1187.2 895.6 1166.65 957.25 1133 1058.05 1050.1 1146.65"/>

<path id="Layer2_0_1_STROKES" stroke="url(#Gradient_22)" stroke-width="2" stroke-linejoin="round" stroke-linecap="round" fill="none" d="
M 1041.45 470.55
Q 1088.35 525.35 1119.25 583.15 1142.9 627.35 1158.3 676.05 1171.05 716.45 1174.85 752.6 1178.5 787.05 1175.45 833.05 1173.9 856.45 1167.1 884.15 1158.1 920.85 1141.4 957.85 1096.3 1057.8 1004.45 1141.7"/>

<path id="Layer0_0_1_STROKES" stroke="#000228" stroke-width="2" stroke-linejoin="round" stroke-linecap="round" fill="none" d="
M 0 0
L 1400 0"/>
</defs>

<g transform="matrix( 1, 0, 0, 1, 0,0) ">
<use xlink:href="#Layer27_0_FILL"/>
</g>

<g transform="matrix( 1, 0, 0, 1, 0,0) ">
<use xlink:href="#Layer26_0_FILL"/>
</g>

<g transform="matrix( 1, 0, 0, 1, 0,0) ">
<use xlink:href="#Layer25_0_FILL"/>
</g>

<g transform="matrix( 1, 0, 0, 1, 0,0) ">
<use xlink:href="#Layer24_0_1_STROKES"/>
</g>

<g transform="matrix( 1, 0, 0, 1, 0,0) ">
<use xlink:href="#Layer23_0_1_STROKES"/>
</g>

<g transform="matrix( 1, 0, 0, 1, 0,0) ">
<use xlink:href="#Layer22_0_1_STROKES"/>
</g>

<g transform="matrix( 1, 0, 0, 1, 0,0) ">
<use xlink:href="#Layer21_0_1_STROKES"/>
</g>

<g transform="matrix( 1, 0, 0, 1, 0,0) ">
<use xlink:href="#Layer20_0_1_STROKES"/>
</g>

<g transform="matrix( 1, 0, 0, 1, 0,0) ">
<use xlink:href="#Layer19_0_1_STROKES"/>
</g>

<g transform="matrix( 1, 0, 0, 1, 0,0) ">
<use xlink:href="#Layer18_0_1_STROKES"/>
</g>

<g transform="matrix( 1, 0, 0, 1, 0,0) ">
<use xlink:href="#Layer16_0_1_STROKES"/>
</g>

<g transform="matrix( 1, 0, 0, 1, 0,0) ">
<use xlink:href="#Layer15_0_1_STROKES"/>
</g>

<g transform="matrix( 1, 0, 0, 1, 0,0) ">
<use xlink:href="#Layer14_0_1_STROKES"/>
</g>

<g transform="matrix( 1, 0, 0, 1, 0,0) ">
<use xlink:href="#Layer13_0_1_STROKES"/>
</g>

<g transform="matrix( 1, 0, 0, 1, 0,0) ">
<use xlink:href="#Layer12_0_1_STROKES"/>
</g>

<g transform="matrix( 1, 0, 0, 1, 0,0) ">
<use xlink:href="#Layer11_0_1_STROKES"/>
</g>

<g transform="matrix( 1, 0, 0, 1, 0,0) ">
<use xlink:href="#Layer10_0_1_STROKES"/>
</g>

<g transform="matrix( 1, 0, 0, 1, 0,0) ">
<use xlink:href="#Layer8_0_1_STROKES"/>
</g>

<g transform="matrix( 1, 0, 0, 1, 0,0) ">
<use xlink:href="#Layer7_0_1_STROKES"/>
</g>

<g transform="matrix( 1, 0, 0, 1, 0,0) ">
<use xlink:href="#Layer6_0_1_STROKES"/>
</g>

<g transform="matrix( 1, 0, 0, 1, 0,0) ">
<use xlink:href="#Layer5_0_1_STROKES"/>
</g>

<g transform="matrix( 1, 0, 0, 1, 0,0) ">
<use xlink:href="#Layer4_0_1_STROKES"/>
</g>

<g transform="matrix( 1, 0, 0, 1, 0,0) ">
<use xlink:href="#Layer3_0_1_STROKES"/>
</g>

<g transform="matrix( 1, 0, 0, 1, 0,0) ">
<use xlink:href="#Layer2_0_1_STROKES"/>
</g>

<g transform="matrix( 1, 0, 0, 1, 0,0) ">
<use xlink:href="#Layer0_0_1_STROKES"/>
</g>
</svg>
