<?xml version="1.0" encoding="utf-8"?>
<!-- Generator: Adobe Illustrator 19.1.0, SVG Export Plug-In . SVG Version: 6.00 Build 0)  -->
<svg version="1.1" id="Layer_1" xmlns="http://www.w3.org/2000/svg" xmlns:xlink="http://www.w3.org/1999/xlink" x="0px" y="0px"
	 viewBox="-27 -219 905 999" style="enable-background:new -27 -219 905 999;" xml:space="preserve">
<style type="text/css">
	.st0{fill:#FF6319;}
	.st1{fill:#FFFFFF;}
</style>
<path class="st0" d="M878,766v2c0,6.6-5.4,12-12,12H-15c-6.6,0-12-5.4-12-12v-2c0-6.6,5.4-12,12-12V452c-6.6,0-12-5.4-12-12v-2
	c0-6.6,5.4-12,12-12V132c-6.6,0-12-5.4-12-12v-2c0-6.6,5.4-12,12-12v-299c-6.6,0-12-5.4-12-12v-2c0-6.6,5.4-12,12-12h881
	c6.6,0,12,5.4,12,12v2c0,6.6-5.4,12-12,12v299c6.6,0,12,5.4,12,12v2c0,6.6-5.4,12-12,12v294c6.6,0,12,5.4,12,12v2
	c0,6.6-5.4,12-12,12v302C872.6,754,878,759.4,878,766L878,766z M-6,106v26l669-13L-6,106L-6,106z M-6,426v26l669-13L-6,426L-6,426z"
	/>
<path class="st1" d="M268.4,340.9v-69.2c-6.7,6.3-14.6,10.9-23.7,13.9V269c4.8-1.6,10-4.5,15.6-8.9s9.5-9.5,11.6-15.3h14.9v96.1
	H268.4L268.4,340.9z M366.9,332.7c-5.2,6.5-12.4,9.8-21.7,9.8c-9.3,0-16.8-3.6-22.5-10.7c-5.7-7.2-8.6-19.9-8.6-38.3
	c0-18,3.1-31,9.4-38.9c5.2-6.5,12.4-9.8,21.7-9.8c9.3,0,16.5,3.3,21.7,9.9c6.2,7.8,9.3,20.8,9.3,39
	C376.3,311.8,373.1,324.8,366.9,332.7L366.9,332.7z M355.4,270.5c-1.1-4.2-2.6-7-4.3-8.4c-1.7-1.4-3.7-2.1-5.9-2.1
	c-2.2,0-4.2,0.7-5.9,2.1c-1.7,1.4-3.1,4-4.1,7.6c-1.3,4.7-1.9,12.7-1.9,24c0,11.2,0.6,19,1.7,23.2s2.6,7,4.3,8.4
	c1.7,1.4,3.7,2.1,5.9,2.1c2.2,0,4.2-0.7,5.9-2.1c1.7-1.4,3.1-4,4-7.6c1.3-4.7,1.9-12.7,1.9-23.9
	C357.1,282.4,356.5,274.7,355.4,270.5L355.4,270.5z M441.2,332.7c-5.2,6.5-12.4,9.8-21.7,9.8c-9.3,0-16.8-3.6-22.5-10.7
	c-5.7-7.2-8.6-19.9-8.6-38.3c0-18,3.1-31,9.4-38.9c5.2-6.5,12.4-9.8,21.7-9.8c9.3,0,16.5,3.3,21.7,9.9c6.2,7.8,9.3,20.8,9.3,39
	C450.7,311.8,447.5,324.8,441.2,332.7L441.2,332.7z M429.8,270.5c-1.1-4.2-2.6-7-4.3-8.4c-1.7-1.4-3.7-2.1-5.9-2.1
	c-2.2,0-4.2,0.7-5.9,2.1c-1.7,1.4-3.1,4-4.1,7.6c-1.3,4.7-1.9,12.7-1.9,24c0,11.2,0.6,19,1.7,23.2s2.6,7,4.3,8.4
	c1.7,1.4,3.7,2.1,5.9,2.1c2.2,0,4.2-0.7,5.9-2.1c1.7-1.4,3.1-4,4-7.6c1.3-4.7,1.9-12.7,1.9-23.9
	C431.5,282.4,430.9,274.7,429.8,270.5L429.8,270.5z M515.6,332.7c-5.2,6.5-12.4,9.8-21.7,9.8s-16.8-3.6-22.5-10.7
	c-5.7-7.2-8.6-19.9-8.6-38.3c0-18,3.1-31,9.4-38.9c5.2-6.5,12.4-9.8,21.7-9.8c9.3,0,16.5,3.3,21.8,9.9c6.2,7.8,9.3,20.8,9.3,39
	C525,311.8,521.9,324.8,515.6,332.7L515.6,332.7z M504.1,270.5c-1.1-4.2-2.6-7-4.3-8.4s-3.7-2.1-5.9-2.1s-4.2,0.7-5.9,2.1
	s-3.1,4-4,7.6c-1.3,4.7-1.9,12.7-1.9,24c0,11.2,0.6,19,1.7,23.2s2.6,7,4.3,8.4s3.7,2.1,5.9,2.1s4.2-0.7,5.9-2.1c1.7-1.4,3.1-4,4-7.6
	c1.3-4.7,1.9-12.7,1.9-23.9C505.8,282.4,505.3,274.7,504.1,270.5L504.1,270.5z M541.9,340.9v-95h19.3v78.8h48.1v16.1h-67.4V340.9z"
	/>
</svg>
