<?xml version="1.0" encoding="utf-8"?>
<!-- Generator: Adobe Illustrator 19.1.0, SVG Export Plug-In . SVG Version: 6.00 Build 0)  -->
<svg version="1.1" id="Layer_1" xmlns="http://www.w3.org/2000/svg" xmlns:xlink="http://www.w3.org/1999/xlink" x="0px" y="0px"
	 viewBox="-188 -30 583 620" style="enable-background:new -188 -30 583 620;" xml:space="preserve">
<style type="text/css">
	.st0{fill:#FF6319;}
	.st1{fill:#FFFFFF;}
</style>
<path class="st0" d="M393.3,132.1c-2.1,8.2-17,60.7-30.4,83.4s-15.1,25.8-15.2,31.3c-0.1,5.5-20.1,285.9-20.9,296.6
	c-0.8,10.7-1.4,22.1-26.6,26.5c-32.1,5.6-143.3,21.4-196.4,19.9v0.1c-53,1.6-164.9-14.3-197.1-19.9c-25.2-4.4-25.8-15.8-26.6-26.5
	c-0.8-10.7-20.8-291.2-20.9-296.7s-1.8-8.6-15.2-31.3c-13.4-22.7-28.3-75.2-30.4-83.4c-6.4-25.4,7.5-25.8,12.3-25.6
	c-0.4-4.1,2.1-3.6,1.9-4.7c-0.8-4.6,1.1-4.1,1.9-5.7c1.2-2.2-1.4-5.3-3.8-7.6c-3.1-2.9,1.2-4.3,2.8-4.7c1.7-0.5,19.9-4.7,19.9-4.7
	s-0.7-12-1-17.1c-0.3-5.1-5.2-6.5-7.6-7.6c-2.4-1.1-11.5-4.7-13.3-5.7c-1.8-0.9-2.9-4.2-2.8-5.7c0-2.5,0.6-31,1-34.1
	c0.4-3.1,5.5-2.7,12.3-2.8c1.3-14.6,2.7-12.9,10.4-15.2C-75.6-31.3,103.9-30,103.9-30l0,0c10-0.1,181.1-0.7,255.3,20.9
	c7.8,2.3,9.1,0.6,10.4,15.2c6.8,0.1,11.9-0.3,12.3,2.8c0.4,3.1,0.9,31.6,0.9,34.1c0,1.5-1.1,4.7-2.8,5.7c-1.8,0.9-10.9,4.6-13.3,5.7
	c-2.4,1.1-7.3,2.5-7.6,7.6s-1,17.1-1,17.1s18.3,4.3,19.9,4.7c1.7,0.5,5.9,1.8,2.8,4.7c-2.4,2.3-5,5.4-3.8,7.6
	c0.8,1.6,2.7,1.1,1.9,5.7c-0.2,1.2,2.3,0.6,1.9,4.7C385.8,106.3,399.7,106.7,393.3,132.1L393.3,132.1z M-142.6,219.3
	c-0.3-3.6-4.2-73.2-4.8-81.5c-2.9,0.1-3.7-1.1-4.7-2.8c-9.3,0.4-11.4-0.3-11.4-1.9c-7.8-0.6-6.8-5.6-6.6-11.4
	c-4.5,0-3.8-9.5-3.8-9.5c-4.1,0-13-1.1-6.6,22.7c6.2,23.3,15.3,49.5,32.3,85.3C-143.3,230.8-142.4,222.9-142.6,219.3L-142.6,219.3z
	 M377.2,121.7c0.1,5.8,1.1,10.8-6.6,11.4c0,1.6-2.1,2.3-11.4,1.9c-1.1,1.8-1.9,2.9-4.7,2.8c-0.5,8.3-4.5,77.9-4.7,81.5
	c-0.3,3.6,0.7,11.5,5.7,0.9c17-35.8,26.1-62,32.3-85.3c6.4-23.9-2.6-22.7-6.6-22.7C381,112.2,381.6,121.7,377.2,121.7L377.2,121.7z"
	/>
<path class="st1" d="M-16.7,357.9v-69.2c-6.7,6.3-14.6,10.9-23.7,13.9v-16.7c4.8-1.6,10-4.5,15.6-8.9s9.5-9.5,11.6-15.3H1.7v96.1
	L-16.7,357.9L-16.7,357.9z M75.6,306.2c5.3,2.1,9.4,5.2,12.1,9.3c2.8,4.1,4.1,8.8,4.1,14.2c0,8.8-2.8,16-8.5,21.6
	c-5.6,5.5-13.1,8.3-22.5,8.3c-8.7,0-16-2.3-21.8-6.9c-6.8-5.4-10.3-12.8-10.3-22.2c0-5.2,1.3-9.9,3.9-14.3c2.6-4.3,6.6-7.7,12.1-10
	c-4.7-2-8.2-4.8-10.4-8.3s-3.2-7.3-3.2-11.5c0-7.1,2.5-13,7.5-17.7s12.1-7,21.3-7c9.1,0,16.2,2.3,21.2,7s7.5,10.6,7.5,17.7
	c0,4.4-1.2,8.4-3.5,11.9C83,301.7,79.7,304.4,75.6,306.2L75.6,306.2z M68.4,279.4c-2.1-2.1-4.8-3.1-8.2-3.1c-3.5,0-6.3,1-8.4,3.1
	c-2.1,2.1-3.1,4.9-3.1,8.3c0,3.7,1,6.5,3.1,8.6c2.1,2,4.8,3.1,8.3,3.1s6.3-1,8.4-3.1c2.1-2.1,3.1-4.9,3.1-8.6
	C71.5,284.2,70.5,281.5,68.4,279.4L68.4,279.4z M69.9,318.1c-2.5-2.7-5.7-4.1-9.6-4.1c-4.5,0-7.8,1.5-10,4.6S47,325,47,328.7
	c0,5.1,1.3,9,3.9,11.8c2.6,2.8,5.8,4.2,9.7,4.2c3.8,0,6.9-1.4,9.4-4.1s3.7-6.7,3.7-11.8C73.7,324.4,72.4,320.8,69.9,318.1
	L69.9,318.1z M170.9,357.9h-19.8l-17.4-31.2l-8.6,8.9v22.2h-18.4V262h18.4v50.8l21.5-24.4h22.6l-23.7,25.3L170.9,357.9L170.9,357.9z
	 M243.3,369.1c-1.4,4.1-3.2,7.2-5.7,9.5c-2.4,2.3-5.7,4.1-9.8,5.4c-4.1,1.3-9.2,2-15.4,2c-11.8,0-20.1-2-25-6s-7.4-9.1-7.4-15.3
	c0-0.6,0-1.4,0.1-2.2l21,2.5c0.3,2.4,1.2,4.1,2.4,5c1.7,1.3,4.5,2,8.2,2c4.8,0,8.4-0.7,10.8-2.2c1.6-1,2.8-2.5,3.7-4.6
	c0.6-1.5,0.8-4.3,0.8-8.4v-10.1c-5.5,7.5-12.4,11.2-20.8,11.2c-9.3,0-16.7-3.9-22.1-11.8c-4.3-6.2-6.4-14-6.4-23.3
	c0-11.6,2.8-20.5,8.4-26.6s12.6-9.2,20.9-9.2c8.6,0,15.7,3.8,21.2,11.3v-9.7h17.2v62.2C245.4,358.9,244.7,365,243.3,369.1
	L243.3,369.1z M222.9,306.2c-3-3.5-6.7-5.2-11.2-5.2c-4.4,0-8,1.7-10.9,5.1s-4.3,8.6-4.3,15.6c0,7.4,1.4,12.7,4.3,16.2
	c2.9,3.4,6.4,5.1,10.5,5.1c4.5,0,8.3-1.8,11.4-5.3s4.6-8.7,4.6-15.6C227.3,315,225.9,309.7,222.9,306.2L222.9,306.2z"/>
</svg>
