<?xml version="1.0" encoding="utf-8"?>
<!-- Generator: Adobe Illustrator 19.1.0, SVG Export Plug-In . SVG Version: 6.00 Build 0)  -->
<svg version="1.1" id="Layer_1" xmlns="http://www.w3.org/2000/svg" xmlns:xlink="http://www.w3.org/1999/xlink" x="0px" y="0px"
	 viewBox="-332 19.9 294 523.1" style="enable-background:new -332 19.9 294 523.1;" xml:space="preserve">
<style type="text/css">
	.st0{fill:#FF6319;}
	.st1{fill:#FFFFFF;}
</style>
<path class="st0" d="M-38,488.4c0,39-21.4,48.1-50.5,50.5c0,0-45.3,4-91.9,4c-49.7,0-101-4-101-4c-28.8-2-50.6-11.5-50.6-50.5v-332
	c1.2-21.9,17.1-66.8,57-97.5c31.7-24.4,78.2-36.6,101-31s46,37,46,37s0.4-6.3,4-25c1.3-6.9,2.4-9.9,12-13c14.2-4.6,44.3-12.2,55-2
	c5.3,5,6.8,13.1,7,21c0.2,9.9,2.8,19.7,5,28c2.7,10,3,19,3,19c-12.3,29.1,4,93.6,4,121.5V488.4L-38,488.4z M-184,72
	c-8.5-13.6-37.5-3.3-59,16c-23.6,21.2-38.1,55.6-31,61c10.8,8.2,32.8-15.7,51-33C-202.5,96.5-174.8,86.7-184,72L-184,72z"/>
<path class="st1" d="M-229.1,372.8v-69.2c-6.7,6.3-14.6,10.9-23.7,13.9v-16.6c4.8-1.6,10-4.5,15.6-8.9c5.6-4.4,9.5-9.5,11.6-15.3
	h14.9v96.1L-229.1,372.8L-229.1,372.8z M-178.7,372.8v-95h19.3v78.8h48.1v16.1L-178.7,372.8L-178.7,372.8z"/>
</svg>
