<?xml version="1.0" encoding="utf-8"?>
<!-- Generator: Adobe Illustrator 19.1.0, SVG Export Plug-In . SVG Version: 6.00 Build 0)  -->
<svg version="1.1" id="Layer_1" xmlns="http://www.w3.org/2000/svg" xmlns:xlink="http://www.w3.org/1999/xlink" x="0px" y="0px"
	 viewBox="-190 -188 577.5 937" style="enable-background:new -190 -188 577.5 937;" xml:space="preserve">
<style type="text/css">
	.st0{fill:#FF6319;}
	.st1{fill:#FFFFFF;}
</style>
<path class="st0" d="M387.5,735.8v1.9c0,6.2-5,11.3-11.3,11.3h-555c-6.2-0.1-11.2-5.1-11.2-11.4v-1.9c0-6.2,5-11.3,11.3-11.3V441.3
	c-6.2,0-11.3-5-11.3-11.3v-1.9c0-6.2,5-11.2,11.3-11.2V141.1c-6.3,0-11.3-5-11.3-11.2V128c0-6.2,5-11.3,11.3-11.3v-280.4
	c-6.3,0-11.3-5.1-11.3-11.3v-1.9c0-6.2,5-11.2,11.3-11.2h555c6.2,0,11.3,5,11.3,11.3v1.9c0,6.2-5,11.3-11.3,11.3v280.4
	c6.2,0,11.3,5,11.3,11.3v1.9c0,6.2-5,11.3-11.3,11.3v275.6c6.2,0,11.3,5,11.3,11.3v1.9c0,6.2-5,11.3-11.3,11.3v283.3
	C382.5,724.5,387.5,729.6,387.5,735.8L387.5,735.8z M-170.3,116.7v24.4L276,128.9L-170.3,116.7L-170.3,116.7z M-170.3,416.9v24.4
	L276,429.1L-170.3,416.9L-170.3,416.9z"/>
<path class="st1" d="M14.3,327.8H-50c0.7-6.4,2.8-12.6,6.3-18.3c3.5-5.8,10.4-13.4,20.6-23c8.3-7.7,13.3-12.9,15.2-15.7
	c2.5-3.8,3.8-7.5,3.8-11.2c0-4.1-1.1-7.2-3.3-9.4c-2.2-2.2-5.2-3.3-9.1-3.3c-3.8,0-6.9,1.2-9.1,3.5c-2.3,2.3-3.6,6.1-3.9,11.5
	l-18.3-1.8c1.1-10.1,4.5-17.4,10.3-21.7c5.7-4.4,12.9-6.6,21.6-6.6c9.4,0,16.9,2.5,22.3,7.6s8.1,11.4,8.1,19c0,4.3-0.8,8.4-2.3,12.3
	s-4,8-7.3,12.2c-2.2,2.8-6.2,6.9-12,12.2c-5.8,5.3-9.5,8.8-11,10.6c-1.5,1.7-2.8,3.4-3.8,5.1h36.4v17L14.3,327.8L14.3,327.8z
	 M79.4,319.6c-5.2,6.5-12.4,9.8-21.7,9.8s-16.8-3.6-22.5-10.7c-5.7-7.2-8.6-19.9-8.6-38.3c0-18,3.1-31,9.4-38.9
	c5.2-6.5,12.4-9.8,21.7-9.8s16.5,3.3,21.8,9.9c6.2,7.8,9.3,20.8,9.3,39C88.8,298.6,85.8,311.6,79.4,319.6L79.4,319.6z M67.9,257.4
	c-1.1-4.2-2.6-7-4.3-8.4s-3.7-2.1-5.9-2.1s-4.2,0.7-5.9,2.1c-1.7,1.4-3.1,4-4,7.6c-1.3,4.7-1.9,12.7-1.9,24c0,11.2,0.6,19,1.7,23.2
	c1.1,4.2,2.6,7,4.3,8.4s3.7,2.1,5.9,2.1s4.2-0.7,5.9-2.1c1.7-1.4,3.1-4,4-7.6c1.3-4.7,1.9-12.7,1.9-23.9
	C69.7,269.3,69,261.6,67.9,257.4L67.9,257.4z M153.9,319.6c-5.2,6.5-12.4,9.8-21.7,9.8c-9.3,0-16.8-3.6-22.5-10.7
	c-5.7-7.2-8.6-19.9-8.6-38.3c0-18,3.1-31,9.4-38.9c5.2-6.5,12.4-9.8,21.7-9.8c9.3,0,16.5,3.3,21.8,9.9c6.2,7.8,9.3,20.8,9.3,39
	C163.3,298.6,160.1,311.6,153.9,319.6L153.9,319.6z M142.4,257.4c-1.1-4.2-2.6-7-4.3-8.4c-1.7-1.4-3.7-2.1-5.9-2.1
	c-2.2,0-4.2,0.7-5.9,2.1c-1.7,1.4-3.1,4-4,7.6c-1.3,4.7-1.9,12.7-1.9,24c0,11.2,0.6,19,1.7,23.2s2.6,7,4.3,8.4
	c1.7,1.4,3.7,2.1,5.9,2.1c2.2,0,4.2-0.7,5.9-2.1c1.7-1.4,3.1-4,4-7.6c1.3-4.7,1.9-12.7,1.9-23.9C144,269.3,143.5,261.6,142.4,257.4
	L142.4,257.4z M180,327.8v-95h19.3v78.8h48.1v16.1L180,327.8L180,327.8L180,327.8z"/>
</svg>
