<?xml version="1.0" encoding="utf-8"?>
<!-- Generator: Adobe Illustrator 19.1.0, SVG Export Plug-In . SVG Version: 6.00 Build 0)  -->
<svg version="1.1" id="Layer_1" xmlns="http://www.w3.org/2000/svg" xmlns:xlink="http://www.w3.org/1999/xlink" x="0px" y="0px"
	 viewBox="-172 -47.1 613.7 654.1" style="enable-background:new -172 -47.1 613.7 654.1;" xml:space="preserve">
<style type="text/css">
	.st0{fill:#FF6319;}
	.st1{fill:#FFFFFF;}
</style>
<path class="st0" d="M440,123.9c-2.2,8.6-17.9,64.1-32,88s-15.9,27.2-16,33s-21.1,301.6-22,312.9c-0.8,11.3-1.4,23.4-28,28
	c-33.7,5.9-150.8,22.6-206.8,21v0.1c-55.8,1.7-173.6-15.1-207.5-21c-26.6-4.6-27.2-16.7-28-28s-21.9-307.2-22-313s-1.9-9.1-16-33
	s-29.8-79.3-32-88c-6.8-26.8,7.9-27.2,13-27c-0.5-4.4,2.2-3.8,2-5c-0.8-4.8,1.1-4.3,2-6c1.2-2.3-1.5-5.6-4-8c-3.2-3.1,1.2-4.5,3-5
	s21-5,21-5s-0.7-12.6-1-18s-5.5-6.8-8-8s-12.1-5-14-6s-3-4.4-3-6c0-2.6,0.6-32.7,1-36s5.8-2.9,13-3c1.4-15.4,2.8-13.6,11-16
	c80.6-23.4,269.6-22,269.6-22l0,0c10.5,0,190.6-0.7,268.7,22c8.2,2.4,9.6,0.6,11,16c7.2,0.1,12.6-0.3,13,3s1,33.4,1,36
	c0,1.6-1.1,5-3,6s-11.5,4.8-14,6s-7.7,2.6-8,8s-1,18-1,18s19.2,4.5,21,5s6.2,1.9,3,5c-2.5,2.4-5.2,5.7-4,8c0.9,1.7,2.8,1.2,2,6
	c-0.2,1.2,2.5,0.6,2,5C432.1,96.7,446.8,97.2,440,123.9L440,123.9z M-124.2,215.9c-0.3-3.8-4.4-77.2-5-86c-3,0.1-3.9-1.1-5-3
	c-9.8,0.4-12-0.3-12-2c-8.2-0.6-7.1-5.9-7-12c-4.7,0-4-10-4-10c-4.3,0-13.7-1.2-7,24c6.5,24.5,16.1,52.2,34,90
	C-125,228-124,219.7-124.2,215.9L-124.2,215.9z M423,112.9c0.1,6.1,1.2,11.4-7,12c0,1.7-2.2,2.4-12,2c-1.1,1.9-2,3.1-5,3
	c-0.6,8.8-4.7,82.2-5,86s0.7,12.1,6,1c17.9-37.8,27.5-65.4,34-90c6.7-25.2-2.7-24-7-24C427,102.9,427.7,112.9,423,112.9L423,112.9z"
	/>
<path class="st1" d="M90.9,359.8H26.6c0.7-6.4,2.8-12.6,6.3-18.3c3.5-5.8,10.4-13.4,20.6-23c8.3-7.7,13.3-12.9,15.2-15.7
	c2.5-3.8,3.8-7.5,3.8-11.2c0-4.1-1.1-7.2-3.3-9.4c-2.2-2.2-5.2-3.3-9.1-3.3c-3.8,0-6.9,1.2-9.1,3.5c-2.3,2.3-3.6,6.1-3.9,11.5
	l-18.3-1.8c1.1-10.1,4.5-17.4,10.3-21.7c5.7-4.4,12.9-6.6,21.6-6.6c9.4,0,16.9,2.5,22.3,7.6c5.4,5.1,8.1,11.4,8.1,19
	c0,4.3-0.8,8.4-2.3,12.3s-4,8-7.3,12.2c-2.2,2.8-6.2,6.9-12,12.2c-5.8,5.3-9.5,8.8-11,10.6c-1.5,1.7-2.8,3.4-3.8,5.1h36.4v17H90.9z
	 M156,351.6c-5.2,6.5-12.4,9.8-21.7,9.8c-9.3,0-16.8-3.6-22.5-10.7c-5.7-7.2-8.6-19.9-8.6-38.3c0-18,3.1-31,9.4-38.9
	c5.2-6.5,12.4-9.8,21.7-9.8c9.3,0,16.5,3.3,21.8,9.9c6.2,7.8,9.3,20.8,9.3,39C165.4,330.7,162.3,343.7,156,351.6L156,351.6z
	 M144.5,289.4c-1.1-4.2-2.6-7-4.3-8.4c-1.7-1.4-3.7-2.1-5.9-2.1c-2.2,0-4.2,0.7-5.9,2.1c-1.7,1.4-3.1,4-4,7.6
	c-1.3,4.7-1.9,12.7-1.9,24c0,11.2,0.6,19,1.7,23.2s2.6,7,4.3,8.4c1.7,1.4,3.7,2.1,5.9,2.1c2.2,0,4.2-0.7,5.9-2.1
	c1.7-1.4,3.1-4,4-7.6c1.3-4.7,1.9-12.7,1.9-23.9C146.2,301.3,145.6,293.6,144.5,289.4L144.5,289.4z M182.3,359.8v-95h19.3v78.8h48.1
	v16.1L182.3,359.8L182.3,359.8z"/>
</svg>
