<?xml version="1.0" encoding="utf-8"?>
<!-- Generator: Adobe Illustrator 19.1.0, SVG Export Plug-In . SVG Version: 6.00 Build 0)  -->
<svg version="1.1" id="Layer_1" xmlns="http://www.w3.org/2000/svg" xmlns:xlink="http://www.w3.org/1999/xlink" x="0px" y="0px"
	 viewBox="-417 36 125 490" style="enable-background:new -417 36 125 490;" xml:space="preserve">
<style type="text/css">
	.st0{fill:#FF6319;}
	.st1{fill:#FFFFFF;}
</style>
<path class="st0" d="M-292.4,501.1c0,7.8,3.9,17.7-18.3,21.6c-12.3,2.2-26.9,3.4-42.6,3.4c-15.6,0-30.1-1.3-42.4-3.4
	c-22-3.9-18.2-13.8-18.2-21.6c0-7.5-0.7-296.1,0-312c-0.1-4.8,3.1-5.7,7.2-7c1.4-0.4,11.9-3.4,21.5-7c1.4-0.5,3.6-2.6,3.1-4
	c-0.8-2.1-1.4-3.4-4.1-3c-1.5,0.2-2.6,0.3-3.3-0.7c-0.1-0.1-0.1-0.2-0.1-0.3l0,0c0.1,0.1,0.1,0.2,0.2,0.3
	c-15.7-0.2-28.7-21.3-27.6-37.3c1.3-19.5,5.6-37.6,25-49c10.5-6.2,20.1-7.3,26.3-7.4c0.6,0.1,0.9-1.2,0.9-1.8
	c2.2-15.3,4.1-27,4.4-31.9c0.2-2.4-0.2-4.1,2.1-4c1.5,0,4.6,0,5.1,0s3.7,0,5.2,0c2.2-0.1,1.9,1.6,2.1,4c0.4,4.9,2.9,18.4,5.2,34
	c0.5,3.3-1.8,0.1-1,4c1.8,12.1,3.1,23.3,4.1,31c0.8,6.5,2.3,5.8,12.4,6c4.9,0.1,9.2,1.1,9.3,9c0.2,14.9-0.5,23,0,32
	c0.7,12.4-0.7,12.5-4.1,12c-2.7-0.4-3.3,0.9-4.1,3c-0.5,1.4,1.7,3.5,3.1,4c9.7,3.6,20.3,6.6,21.7,7c4.1,1.3,7.3,2.2,7.2,7
	C-291.7,205-292.4,493.6-292.4,501.1L-292.4,501.1z M-412,127.1c0.8,23.1,12.6,32.6,20.5,34.7c1.9,0.5,1.6-1.7,1.6-1.7
	c0.2-4.6-0.5-14.6-0.1-36c0.1-7.9,4.4-8.9,9.2-9c10-0.2,11.5,0.5,12.3-6c1-7.7,2.3-18.9,4.1-31c0.4-1.7-0.5-2.1-0.4-2
	c-6.1,0.1-18.3,1.2-26.2,7C-402,91.2-412.9,102.5-412,127.1L-412,127.1z"/>
<path class="st1" d="M-330.7,396.8c-4.2-2.2-9.2-6.1-15-11.9c-6.7-6.7-11.9-11.1-15.6-13.2s-7.1-3.1-10.2-3.1
	c-3.6,0-6.6,1.1-8.9,3.2s-3.4,4.8-3.4,7.9c0,3.4,1.2,6.1,3.7,8.3c2.5,2.1,6,3.2,10.7,3.2l-0.9,7.4c-6.9-0.5-12-2.5-15.5-5.8
	c-3.5-3.4-5.2-7.8-5.2-13.3c0-6,2-10.5,6.1-13.6c4-3.1,8.6-4.6,13.8-4.6c4.6,0,8.9,1.2,13.1,3.6s9.8,7,16.7,13.7
	c4.4,4.3,7.4,7.1,9,8.3c1.6,1.3,3.2,2.3,4.8,3.1v-28.8h8.4V400C-322.7,399.9-326.5,398.9-330.7,396.8L-330.7,396.8z M-323.3,347.4
	c-3.5,3.5-8.4,5.5-14.7,6l-0.8-7.6c4.6-0.6,8-1.9,10.2-4s3.3-4.5,3.3-7.2c0-3.4-1.6-6.4-4.7-8.8c-3.1-2.5-7.4-3.7-12.9-3.7
	c-5.1,0-9.1,1.2-11.9,3.6s-4.2,5.4-4.2,9c0,2.2,0.6,4.2,1.8,6.1s2.9,3.4,5.1,4.5l-1.1,6.8l-36.8-5.7v-29.1h8.4v23.4l19.3,3.1
	c-3-3.5-4.5-7.2-4.5-11.1c0-4.9,2.1-9.2,6.3-12.8c4.2-3.6,9.8-5.4,16.9-5.4c7,0,13,1.8,18,5.4s7.5,8.5,7.5,14.6
	C-318,339.6-319.8,343.9-323.3,347.4L-323.3,347.4z M-326.2,302.4c-5.5,3.6-14.9,5.3-28.3,5.3c-12,0-21.1-1.6-27.3-4.9
	c-6.2-3.2-9.3-8-9.3-14.3c0-5.6,2.5-10,7.5-13.2c6.1-3.9,15.7-5.9,29.1-5.9c11.9,0,21,1.6,27.2,4.8c6.2,3.2,9.3,8,9.3,14.4
	C-318,294.3-320.8,298.9-326.2,302.4L-326.2,302.4z M-331.3,280.3c-4-2.2-11.8-3.3-23.3-3.3c-11.7,0-19.5,1.1-23.4,3.4
	c-3.9,2.2-5.9,5.1-5.9,8.7c0,3.3,2,6,6,8.2s11.8,3.3,23.3,3.3c11.6,0,19.4-1.1,23.4-3.4c4-2.2,5.9-5.1,5.9-8.6
	C-325.2,285.3-327.2,282.4-331.3,280.3L-331.3,280.3z M-360.7,227.3c2.7,1.9,7.5,2.9,14.5,2.9h26.9v7.2h-51.8V231h7.2
	c-2.7-1.4-4.8-3.3-6.2-5.5c-1.5-2.2-2.2-4.7-2.2-7.4c0-3,0.8-5.5,2.3-7.6s3.8-3.5,6.7-4.4c-3-1.7-5.3-3.6-6.8-5.9
	c-1.5-2.2-2.3-4.6-2.3-7.3c0-4.1,1.4-7.3,4.1-9.7c2.8-2.4,7.2-3.5,13.3-3.5h35.6v7.2h-32.5c-3.7,0-6.3,0.3-7.9,0.8
	c-1.5,0.5-2.7,1.4-3.6,2.6c-0.8,1.2-1.3,2.6-1.3,4.1c0,3.1,1.2,5.6,3.7,7.6s6.3,2.9,11.6,2.9h30.2v7.2H-353c-4.3,0-7.3,0.7-9.1,2
	c-1.8,1.3-2.6,3.1-2.6,5.4C-364.7,222.8-363.4,225.3-360.7,227.3L-360.7,227.3z M-390.8,169.2V162h71.6v7.2H-390.8L-390.8,169.2z"/>
</svg>
