<?xml version="1.0" encoding="utf-8"?>
<!-- Generator: Adobe Illustrator 19.1.0, SVG Export Plug-In . SVG Version: 6.00 Build 0)  -->
<svg version="1.1" id="Layer_1" xmlns="http://www.w3.org/2000/svg" xmlns:xlink="http://www.w3.org/1999/xlink" x="0px" y="0px"
	 viewBox="-378 45.9 202 471.1" style="enable-background:new -378 45.9 202 471.1;" xml:space="preserve">
<style type="text/css">
	.st0{fill:#FF6319;}
	.st1{fill:#FFFFFF;}
</style>
<g>
	<path class="st0" d="M-266,49.9c1.4-3.1,3.4-3.7,8-2c3.1,1.2,70.2,26.3,74,28s2.6,3.9,2,6s-4.2,10.3-5,13s-2.6,4.8-5,4
		s-4.7,0.3-6,3s-2.7,6.9,0,8c4.7,1.9,6.3,4.9,5,10c-0.7,2.6,1.1,6.8,2,15s14.5,68.8,15,192c0.4,88.5-9.8,146-11,159
		c-1.6,16.7-15.6,29.5-60,30s-60.3-0.6-71-1c-23.3-1-50.2-8.4-54-50c-1.3-13.9,7.1-32,9-42s5.5-45,5-74c-0.8-43.8-19.5-83.6-20-112
		s12.8-83.4,55-122c30.1-27.6,37.5-27,41-32c2.2-3.1,4.6-3.9,6-3s3.5,1.3,5-1c0.6-0.9,2.2-2.8,3-4c1.3-2-0.7-4-2-5c-2-1.6-6.5-3-3-8
		S-267.8,53.9-266,49.9L-266,49.9z"/>
	<path class="st1" d="M-261.1,396.4v28h-8.9l-51-29.4v-6.5h51v-8.8h8.9v8.8h18.9v7.9H-261.1L-261.1,396.4z M-270,396.4h-35.5
		l35.5,20.2V396.4L-270,396.4z M-250,365.8c-6,3.9-16.4,5.9-31.2,5.9c-13.2,0-23.2-1.8-30-5.3c-6.8-3.6-10.2-8.8-10.2-15.8
		c0-6.2,2.8-11,8.3-14.6c6.7-4.3,17.3-6.4,32-6.4c13.1,0,23.1,1.8,29.9,5.3c6.8,3.5,10.2,8.8,10.2,15.8
		C-240.9,356.8-244,361.9-250,365.8L-250,365.8z M-255.5,341.3c-4.4-2.4-13-3.7-25.6-3.7c-12.8,0-21.4,1.2-25.7,3.7
		c-4.3,2.5-6.5,5.6-6.5,9.6c0,3.6,2.2,6.6,6.6,9s13,3.6,25.6,3.6c12.8,0,21.4-1.2,25.7-3.7c4.4-2.5,6.5-5.6,6.5-9.4
		C-248.9,346.8-251.1,343.8-255.5,341.3L-255.5,341.3z M-250,315.6c-6,3.9-16.4,5.9-31.2,5.9c-13.2,0-23.2-1.8-30-5.3
		c-6.8-3.6-10.2-8.8-10.2-15.8c0-6.2,2.8-11,8.3-14.6c6.7-4.3,17.3-6.4,32-6.4c13.1,0,23.1,1.8,29.9,5.3c6.8,3.5,10.2,8.8,10.2,15.8
		C-240.9,306.7-244,311.7-250,315.6L-250,315.6z M-255.5,291.2c-4.4-2.4-13-3.7-25.6-3.7c-12.8,0-21.4,1.2-25.7,3.7
		c-4.3,2.5-6.5,5.6-6.5,9.6c0,3.6,2.2,6.6,6.6,9s13,3.6,25.6,3.6c12.8,0,21.4-1.2,25.7-3.7c4.4-2.5,6.5-5.6,6.5-9.4
		C-248.9,296.7-251.1,293.6-255.5,291.2L-255.5,291.2z M-224,240.8c-3.3,3.3-7.8,4.8-13.5,4.7l1.4-7.7c3.1-0.4,5.3-1.4,6.8-3.2
		s2.2-4.3,2.2-7.5c0-3.5-0.8-6.2-2.5-8.3s-4.1-3.5-7.4-4.2c-2-0.5-6.2-0.7-12.7-0.7c2.5,1.7,4.3,3.7,5.5,5.8s1.9,4.5,1.9,7.1
		c0,5.6-2.4,10.2-7.1,13.9c-5.4,4.2-12.7,6.3-21.9,6.3c-6.1,0-11.5-0.9-16.1-2.8c-4.6-1.9-7.9-4.3-10.1-7.3c-2.1-3-3.2-6.4-3.2-10.2
		c0-2.8,0.7-5.3,2-7.5c1.4-2.3,3.4-4.3,6.1-6h-6.8v-7.3h49.4c8.8,0,15,0.7,18.8,2.1c3.7,1.4,6.7,3.8,8.9,7c2.2,3.3,3.2,7.2,3.2,11.8
		C-219.1,232.9-220.8,237.6-224,240.8L-224,240.8z M-255.3,217.1c-3.4-2.5-8.7-3.8-16.1-3.8c-7.2,0-12.5,1.3-16,3.9
		c-3.5,2.6-5.3,5.7-5.3,9.4c0,3.3,1.8,6.2,5.3,8.7s8.7,3.7,15.6,3.7c7.5,0,13-1.2,16.4-3.7c3.4-2.5,5.2-5.5,5.2-9.1
		C-250.2,222.6-251.9,219.6-255.3,217.1L-255.3,217.1z"/>
</g>
</svg>
