<?xml version="1.0" encoding="utf-8"?>
<!-- Generator: Adobe Illustrator 19.1.0, SVG Export Plug-In . SVG Version: 6.00 Build 0)  -->
<svg version="1.1" id="Layer_1" xmlns="http://www.w3.org/2000/svg" xmlns:xlink="http://www.w3.org/1999/xlink" x="0px" y="0px"
	 viewBox="-298 15.3 362.7 531.7" style="enable-background:new -298 15.3 362.7 531.7;" xml:space="preserve">
<style type="text/css">
	.st0{fill:#FF6319;}
	.st1{fill:#FFFFFF;}
</style>
<path class="st0" d="M64.3,365.7c0,38.8-2.3,86.3-2.3,70.7c-0.6,7.4-1.1,14.8-1.7,22.2c-2.8,11.7-5.8,23.9-11.4,33.1
	c-2.4,4-6.2,7.5-8.6,11.4c-3.3,5.3-1.9,13.3-4,20c-2.7,8.3-9.4,14.5-17.1,17.7c-6.7,2.7-19.9,5.1-37.3,5.5
	c-65,1.4-168.9,0.1-228.5-1c-3.7-0.8-9.8,0.4-14.3-0.6c-9.9-2.2-18.3-4-23.4-10.8c-5.1-6.8-9.5-14.5-12-24
	c-1.6-6.1-1.8-11.3-1.7-18.3c1.6-89,2.9-135.8,2.9-152.3c0-74.4-1.7-116-1.1-136.3c0.6-20.4,7.1-61.4,15.4-87.3
	c1.9-5.8,3-14.9,6.3-20c2.3-3.5,6.9-2.5,7.4-8c-2.7-1.1-5.4-2-5.7-5.7c-2-3-1.2-14.2-1.1-18.8c0.1-8.9,0.9-18,3.4-25.7
	c1.6-5.1,3-11.5,5.7-15.4c1.9-2.7,3.9-3.1,6.1-3.5c-4.5,1-4.2,1.3,3.1-0.5c-1.1,0.3-2.1,0.4-3.1,0.5c10.2-2.2,45.2-7.8,79.1,2.3
	c5.7,1.7,13.6,2,16.6,6.3c9.2,13.2,5.6,44.9,5.1,64.5c1.9,0.7,5.2,0.6,8,0.6c3.3-2,11.6-1.3,15.4-2.9c9.8-3.9,19.4-8.8,28-14.3
	C-85,61.8-68.1,41.1-42,32.6c27.5-9,51.8,14.6,61.1,28.5c12.3,18.5,20.8,39.7,27.4,64.5c6.6,24.7,13.7,92.4,16.6,135.8
	C65.6,298,64.3,365.9,64.3,365.7L64.3,365.7z"/>
<path class="st1" d="M-131.4,335.6v19.3h-17.8v-19.3h-39.2v-16.1l41.5-60.8h15.4v60.7h11.9v16.1h-11.8V335.6z M-149.2,286.8
	l-22,32.7h22V286.8L-149.2,286.8z M-106.2,354.9v-95h19.3v78.8h48.1v16.1L-106.2,354.9L-106.2,354.9z"/>
</svg>
