<?xml version="1.0" encoding="utf-8"?>
<!-- Generator: Adobe Illustrator 19.1.0, SVG Export Plug-In . SVG Version: 6.00 Build 0)  -->
<svg version="1.1" id="Layer_1" xmlns="http://www.w3.org/2000/svg" xmlns:xlink="http://www.w3.org/1999/xlink" x="0px" y="0px"
	 viewBox="-93 -67.2 771.8 694.2" style="enable-background:new -93 -67.2 771.8 694.2;" xml:space="preserve">
<style type="text/css">
	.st0{fill:#FF6319;}
	.st1{fill:#FFFFFF;}
</style>
<path class="st0" d="M678.7,291c-0.7,23.4-3.6,90.4-4.3,100.6c-4.5,28.9-15,179-26.7,198c-9.4,15.3-19.9,9.8-36.8,16.5
	c-7.2,5.7-14.9,16-36.3,16c-14.7,0-27.3-9-28.8-9c-2.3,0-9.6,5.7-19.2,9c-9.5,3.3-22.6,4.9-29.9,4.9c-36.7,0-319.8-0.2-346.6-0.2
	s-77.6-1.3-114.1-2.1c-32-4.8-60.1-3.2-80.5-18.1C-78,582.1-76,496.8-84.3,444.8c-2.7-31.6-7.8-106.8-8.6-174
	c-0.8-65.4,2.6-123.2,2.7-127.2c0.6-29.8,0.3-93.3,12.3-132c4-13,13.5-23.3,25.6-28.2c7.8-3.2,13.8-4.5,18.1-10.6
	c3.5-5,2.1-14.9,2.1-17.6c0-0.6,1.1-4.8,4.3-5.3c7.7-1.3,30.5-1,38.4,0c3.7,0.5,5.9,4.1,5.9,4.8c0,2.5,0.5,3.7,0.5,9
	c58.8-0.8,114-1.2,117.3-2.7c0-2.7,2.6-7.5,10.7-8c25.6-1.6,65.8-2.1,81.6-2.1c54,0,108.1,0,162.1,0c9.8,0,19.6,0,29.3,0
	c7.1-1.6,4-5.3,19.7-5.3s25.6,6.6,34.1,16.5c4.1,2.3,38.9,1.2,40.5-1.1c0.5-2.5,1.1-17.2,1.6-19.7c4.8-9.6,20.6-8.5,35.2-8.5
	c14.6,0,61.7,0,70.4,0s27.9,0.3,32.5,10.1c4.1,8.1,1.7,59.9-1.1,67.6c-2.5,0.9-5,1.8-7.5,2.7c0.4,0.5,0.7,1.1,1.1,1.6
	c5,1.9,11.5,20,13.9,25.5c8,18.4,12.1,39.7,16,63.3c0.5,8.5,1.1,17,1.6,25.5C675.2,97.4,679.3,243.7,678.7,291L678.7,291z
	 M412.3-4.3C398.7-10.1,372.8-7,354.7-7c-41.4,0-118-0.4-124.1,0s-10.2,4.8-16.3,4.8c-6.1,0-10-5-15.6-5.4
	C187.1-8.4,174.3-4.4,165.5,8c-10,14.1-4.4,38.4,8.1,45.6c18.1,10.4,50,4.8,76.6,4.8c33.6,0,68.2-2.5,99.7,2.7
	c17.1,2.8,46.8,8.6,63.7,1.4c7.1-3,17.2-17.6,19-25.8C436.5,18.5,425.2,1.2,412.3-4.3L412.3-4.3z"/>
<path class="st1" d="M172.7,288.9c4.1-2,8.3-3.1,12.5-3.1c8.1,0,15,3,20.7,8.9s8.5,13.6,8.5,23.1c0,7.9-2.3,14.9-6.9,21.1
	c-6.2,8.4-14.9,12.7-25.9,12.7c-8.8,0-16-2.4-21.6-7.1s-8.9-11.1-10-19.1l18.3-1.9c0.5,4.1,2.1,7.4,4.6,9.8c2.6,2.4,5.5,3.6,8.9,3.6
	c3.8,0,7.1-1.6,9.7-4.7c2.7-3.1,4-7.8,4-14.1c0-5.9-1.3-10.3-4-13.2c-2.6-2.9-6.1-4.4-10.3-4.4c-5.3,0-10,2.3-14.2,7l-14.9-2.2
	l9.4-49.8H210v17.2h-34.6L172.7,288.9L172.7,288.9z M276.9,341.7c-5.2,6.5-12.4,9.8-21.7,9.8c-9.3,0-16.8-3.6-22.5-10.7
	c-5.7-7.2-8.6-19.9-8.6-38.3c0-18,3.1-31,9.4-38.9c5.2-6.5,12.4-9.8,21.7-9.8s16.5,3.3,21.7,9.9c6.2,7.8,9.3,20.8,9.3,39
	C286.3,320.8,283.1,333.8,276.9,341.7L276.9,341.7z M265.4,279.5c-1.1-4.2-2.6-7-4.3-8.4c-1.7-1.4-3.7-2.1-5.9-2.1
	c-2.2,0-4.2,0.7-5.9,2.1c-1.7,1.4-3.1,4-4.1,7.6c-1.3,4.7-1.9,12.7-1.9,24c0,11.2,0.6,19,1.7,23.2s2.6,7,4.3,8.4
	c1.7,1.4,3.7,2.1,5.9,2.1c2.2,0,4.2-0.7,5.9-2.1c1.7-1.4,3.1-4,4.1-7.6c1.3-4.7,1.9-12.7,1.9-23.9
	C267.1,291.4,266.5,283.7,265.4,279.5L265.4,279.5z M366,349.9h-19.8l-17.4-31.2l-8.6,8.9v22.2h-18.4V254h18.4v50.8l21.5-24.4h22.6
	l-23.8,25.4L366,349.9L366,349.9z M438.4,361.1c-1.4,4.1-3.2,7.2-5.7,9.5c-2.4,2.3-5.7,4.1-9.8,5.4c-4.1,1.3-9.2,2-15.4,2
	c-11.8,0-20.1-2-25-6s-7.4-9.1-7.4-15.3c0-0.6,0-1.4,0.1-2.2l21,2.5c0.3,2.4,1.2,4.1,2.4,5c1.7,1.3,4.5,2,8.2,2
	c4.8,0,8.4-0.7,10.8-2.2c1.6-1,2.8-2.5,3.7-4.6c0.6-1.5,0.8-4.3,0.8-8.4v-10.1c-5.5,7.5-12.4,11.2-20.8,11.2
	c-9.3,0-16.7-3.9-22.1-11.8c-4.3-6.2-6.4-14-6.4-23.3c0-11.6,2.8-20.5,8.4-26.6s12.6-9.2,20.9-9.2c8.6,0,15.7,3.8,21.2,11.3v-9.7
	h17.2v62.2C440.4,350.9,439.7,357,438.4,361.1L438.4,361.1z M417.9,298.2c-3-3.5-6.7-5.2-11.2-5.2c-4.4,0-8,1.7-10.9,5.1
	s-4.3,8.6-4.3,15.6c0,7.4,1.4,12.7,4.3,16.2c2.9,3.4,6.4,5.1,10.5,5.1c4.5,0,8.3-1.8,11.4-5.3s4.6-8.7,4.6-15.6
	C422.4,307,420.9,301.7,417.9,298.2L417.9,298.2z"/>
</svg>
