<?xml version="1.0" encoding="utf-8"?>
<!-- Generator: Adobe Illustrator 19.1.0, SVG Export Plug-In . SVG Version: 6.00 Build 0)  -->
<svg version="1.1" id="Layer_1" xmlns="http://www.w3.org/2000/svg" xmlns:xlink="http://www.w3.org/1999/xlink" x="0px" y="0px"
	 viewBox="-263 -9.7 432.5 578.7" style="enable-background:new -263 -9.7 432.5 578.7;" xml:space="preserve">
<style type="text/css">
	.st0{fill:#FF6319;}
	.st1{fill:#FFFFFF;}
</style>
<path class="st0" d="M163.8,324c-4.6,31.3-3.9,61.6-8.3,90.6c-4,25.8,0,54.7-8.3,76.1c-4.1,6.9-8.2,13.8-12.3,20.7
	c-3.2,2.8-6.4,5.6-9.7,8.4c-0.7,3.5-1.5,7-2.2,10.6c-1.3,3.5-4.3,4-6.1,6.6c-6.2,8.8-3.8,19.3-16.7,23.7
	c-21.7,7.5-50.6,7.9-73.3,7.9c-22.6,0-159.7,0.4-173.3,0.4c-13.6,0-62.8,1.1-81.6-12.8c-17-12.6-26.6-39.3-30.7-64.6
	c0.4-53.1,0.9-106.1,1.3-159.2c2.7-19.7-2.6-39.2-4.8-55.4c-1.9-13.4-0.3-30.2,1.3-41.8c4.8-35.1,4-71.1,11.8-102.5
	c6.2-24.8,14.9-81.8,37.3-87.5c-0.5-17.3-4.2-46,8.8-51.4c9-3.8,22.7,0,33.8-3.5c18.5,2.7,43-0.3,48.3,17.1
	c4.2,14.1-3.6,29.1,0,40.9c20,8.4,42.8,0.2,59.2-7c41.2-18.2,91.3-65.8,146.5-30.8c19.4,12.3,30.5,31.9,42.1,52.3
	C164.9,129.4,178.2,225.2,163.8,324L163.8,324z M119.1,200c-6.8-31.5-16.9-63.4-27.6-91.5c-5.6-14.6-7.2-31.6-27.6-31.7
	c-12.1,3.6-21.2,6-25,17.1c-4.3,12.6,4.6,27.6,7.9,35.6C57.2,155,64.5,181.6,74,209.1c5.5,15.8,4.3,46,31.1,37.4
	C122.5,241,123.5,220.6,119.1,200L119.1,200z"/>
<path class="st1" d="M-119.3,290.8c4.1-2,8.3-3.1,12.5-3.1c8.1,0,15,3,20.7,8.9s8.5,13.6,8.5,23.1c0,7.9-2.3,14.9-6.9,21.1
	c-6.2,8.4-14.9,12.7-25.9,12.7c-8.8,0-16-2.4-21.6-7.1s-8.9-11.1-10-19.1l18.3-1.9c0.5,4.1,2.1,7.4,4.6,9.8c2.6,2.4,5.5,3.6,8.9,3.6
	c3.8,0,7.1-1.6,9.7-4.7c2.7-3.1,4-7.8,4-14.1c0-5.9-1.3-10.3-4-13.2c-2.6-2.9-6.1-4.4-10.3-4.4c-5.3,0-10,2.3-14.2,7l-14.9-2.2
	l9.4-49.8H-82v17.2h-34.6L-119.3,290.8L-119.3,290.8z M-63.2,351.8v-95h19.3v78.8H4.2v16.1h-67.4V351.8z"/>
</svg>
