<?xml version="1.0" encoding="utf-8"?>
<!-- Generator: Adobe Illustrator 19.1.0, SVG Export Plug-In . SVG Version: 6.00 Build 0)  -->
<svg version="1.1" id="Layer_1" xmlns="http://www.w3.org/2000/svg" xmlns:xlink="http://www.w3.org/1999/xlink" x="0px" y="0px"
	 viewBox="-49 -107 860.2 774" style="enable-background:new -49 -107 860.2 774;" xml:space="preserve">
<style type="text/css">
	.st0{fill:#FF6319;}
	.st1{fill:#FFFFFF;}
</style>
<path class="st0" d="M811.2,292.4c-0.7,26.1-4.1,100.8-4.8,112.2c-5.1,32.2-16.7,199.6-29.7,220.7c-10.5,17-22.2,10.9-41,18.4
	c-8,6.3-16.6,17.8-40.4,17.8c-16.4,0-30.4-10.1-32.1-10.1c-2.6,0-10.7,6.3-21.4,10.1c-10.5,3.7-25.2,5.5-33.3,5.5
	c-40.9,0-356.5-0.2-386.3-0.2c-29.9,0-86.5-1.5-127.2-2.4c-35.7-5.4-66.9-3.5-89.7-20.2C-32.3,617-30,521.8-39.4,463.9
	c-3-35.3-8.6-119.1-9.5-194c-0.9-72.9,2.9-137.4,3-141.9c0.6-33.3,0.4-104,13.7-147.2c4.5-14.5,15-26,28.5-31.4
	c8.6-3.5,15.4-5,20.2-11.9C20.4-68,18.9-79,18.9-82c0-0.7,1.3-5.3,4.8-5.9c8.5-1.4,34-1.1,42.8,0c4.1,0.5,6.5,4.6,6.5,5.3
	c0,2.8,0.6,4.1,0.6,10.1c65.5-0.9,127-1.3,130.8-3c0-3.1,2.9-8.3,11.9-8.9c28.6-1.8,73.4-2.4,90.9-2.4c60.2,0,120.5,0,180.7,0
	c10.9,0,21.8,0,32.7,0c7.9-1.8,4.5-5.9,22-5.9s28.5,7.3,38,18.4c4.5,2.6,43.4,1.3,45.2-1.2c0.6-2.8,1.2-19.2,1.8-22
	c5.3-10.7,23-9.5,39.2-9.5s68.8,0,78.5,0s31.1,0.3,36.3,11.3c4.5,9,1.9,66.8-1.2,75.4c-2.8,1-5.5,2-8.3,3c0.4,0.6,0.8,1.2,1.2,1.8
	c5.6,2.1,12.8,22.3,15.5,28.5c8.9,20.5,13.4,44.3,17.8,70.6c0.6,9.5,1.2,19,1.8,28.5C807.3,76.5,811.8,239.7,811.2,292.4
	L811.2,292.4z M514.2-36.9c-15.2-6.5-44-3-64.2-3c-46.1,0-131.5-0.5-138.3,0s-11.4,5.3-18.1,5.3c-6.8,0-11.1-5.6-17.4-6.1
	c-12.9-0.9-27.2,3.6-37,17.4c-11.2,15.7-4.9,42.8,9.1,50.8c20.2,11.5,55.7,5.3,85.4,5.3c37.5,0,76-2.8,111.1,3
	c19.1,3.2,52.1,9.6,71,1.5c7.9-3.4,19.2-19.6,21.2-28.8C541.2-11.4,528.6-30.7,514.2-36.9L514.2-36.9z"/>
<path class="st1" d="M316.4,299.4c-1.8-1.7-4.2-2.6-7.1-2.6c-3.9,0-7.2,1.7-9.8,5.2c-2.7,3.5-4.4,10.7-5.1,21.8
	c4.6-5.4,10.3-8.1,17-8.1c7.7,0,14.2,2.9,19.7,8.8c5.5,5.8,8.2,13.4,8.2,22.6c0,9.8-2.9,17.7-8.6,23.6s-13.1,8.9-22.1,8.9
	c-9.7,0-17.6-3.8-23.8-11.3c-6.2-7.5-9.3-19.8-9.3-36.9c0-17.5,3.2-30.2,9.7-37.9c6.5-7.8,14.9-11.6,25.3-11.6
	c7.3,0,13.3,2,18.1,6.1c4.8,4.1,7.8,10,9.1,17.7l-17.8,2C319.4,303.9,318.2,301.2,316.4,299.4L316.4,299.4z M300.1,359.4
	c2.7,3.2,5.9,4.9,9.4,4.9c3.4,0,6.2-1.3,8.5-4s3.4-7,3.4-13.1c0-6.2-1.2-10.8-3.7-13.7c-2.4-2.9-5.5-4.3-9.1-4.3
	c-3.5,0-6.5,1.4-8.9,4.1c-2.4,2.8-3.7,6.8-3.7,12.2C296,351.6,297.3,356.2,300.1,359.4L300.1,359.4z M402.5,369.7
	c-5.2,6.5-12.4,9.8-21.7,9.8c-9.3,0-16.8-3.6-22.5-10.7c-5.7-7.2-8.6-19.9-8.6-38.3c0-18,3.1-31,9.4-38.9c5.2-6.5,12.4-9.8,21.7-9.8
	s16.5,3.3,21.8,9.9c6.2,7.8,9.3,20.8,9.3,39C411.9,348.8,408.8,361.8,402.5,369.7L402.5,369.7z M391,307.5c-1.1-4.2-2.6-7-4.3-8.4
	c-1.7-1.4-3.7-2.1-5.9-2.1c-2.2,0-4.2,0.7-5.9,2.1c-1.7,1.4-3.1,4-4.1,7.6c-1.3,4.7-1.9,12.7-1.9,24c0,11.2,0.6,19,1.7,23.2
	s2.6,7,4.3,8.4c1.7,1.4,3.7,2.1,5.9,2.1c2.2,0,4.2-0.7,5.9-2.1c1.7-1.4,3.1-4,4.1-7.6c1.3-4.7,1.9-12.7,1.9-23.9
	C392.7,319.4,392.1,311.7,391,307.5L391,307.5z M428.7,377.9v-95H448v78.8h48.1v16.1L428.7,377.9L428.7,377.9z"/>
</svg>
