<?xml version="1.0" encoding="utf-8"?>
<!-- Generator: Adobe Illustrator 19.1.0, SVG Export Plug-In . SVG Version: 6.00 Build 0)  -->
<svg version="1.1" id="Layer_1" xmlns="http://www.w3.org/2000/svg" xmlns:xlink="http://www.w3.org/1999/xlink" x="0px" y="0px"
	 viewBox="-102 -17.2 754.4 594.2" style="enable-background:new -102 -17.2 754.4 594.2;" xml:space="preserve">
<style type="text/css">
	.st0{fill:#FF6319;}
</style>
<g>
	<path class="st0" d="M238.6,456.4c0.2,56.4-6.2,93.1-7,101.4c-1,10.7-10,18.8-38.3,19.1c-28.4,0.3-38.5-0.4-45.3-0.6
		c-14.9-0.6-32-5.3-34.5-31.9c-0.8-8.8,4.6-20.4,5.7-26.8c1.2-6.3,3.5-28.7,3.2-47.2c-0.5-27.9-12.5-53.3-12.8-71.4
		s8.2-53.2,35.1-77.8c19.2-17.6,23.9-17.2,26.2-20.4c1.4-2,2.9-2.5,3.8-1.9c0.9,0.6,2.2,0.8,3.2-0.6c0.4-0.6,1.4-1.8,1.9-2.6
		c0.8-1.3-0.5-2.6-1.3-3.2c-1.3-1-4.2-1.9-1.9-5.1c2.2-3.2,3.3-5.1,4.5-7.7c0.9-2,2.2-2.4,5.1-1.3c2,0.8,44.8,16.7,47.3,17.8
		c2.4,1.1,1.7,2.5,1.3,3.8c-0.4,1.4-2.7,6.6-3.2,8.3c-0.5,1.7-1.7,3.1-3.2,2.5c-1.5-0.5-3,0.2-3.8,1.9c-0.8,1.7-1.7,4.4,0,5.1
		c3,1.2,4,3.1,3.2,6.4c-0.4,1.7,0.7,4.3,1.3,9.6C229.6,339.2,238.3,377.9,238.6,456.4L238.6,456.4z"/>
	<path class="st0" d="M165.6,262.9c0,0-10.1,16.7-12.6,22.2c-4.9,3.5-11.9,8.9-21.9,18.1c-34.9,32.1-43.9,77.2-43.5,100.7
		s12.3,41.7,13,78c0.4,21.7-5.5,38.4-10,61c-1,5.1,3.9,13.1,1.8,13.2c-15.6,0.9-36.2,1.8-57.1,1.8c-45.5,0-92.4-3.7-92.4-3.7
		c-26.3-1.8-46.2-10.5-46.2-46.2V204c1.1-20,15.7-61.2,52.2-89.3c29-22.4,71.5-33.5,92.4-28.4c20.9,5.2,42.1,33.9,42.1,33.9
		s0.4-5.7,3.7-22.9c1.2-6.3,2.2-9.1,11-11.9c13-4.2,40.5-11.2,50.3-1.8c4.8,4.6,6.2,12,6.4,19.2c0.2,9,2.5,18.1,4.6,25.6
		c2.5,9.2,2.7,17.4,2.7,17.4C150.7,172.5,165.6,237.4,165.6,262.9L165.6,262.9z M32,126.6c-7.8-12.4-34.3-3-54,14.6
		c-21.6,19.4-34.9,50.9-28.4,55.9c9.9,7.5,30-14.4,46.7-30.2C15.1,149.1,40.5,140.1,32,126.6L32,126.6z"/>
	<g>
		<path class="st0" d="M382.9,194.1c-4.6,0-8.4,1.8-11.4,5.4s-4.5,9-4.5,16.4c0,7.7,1.5,13.3,4.5,16.9s6.7,5.4,11,5.4
			c4.7,0,8.6-1.8,11.9-5.5c3.2-3.7,4.8-9.1,4.8-16.3c0.1-7.6-1.5-13.2-4.6-16.8C391.5,196,387.6,194.1,382.9,194.1z"/>
		<path class="st0" d="M651.8,133.6c0.1,1.2,0.2,2.3,0.2,3.5C651.9,134.6,651.8,133.5,651.8,133.6z"/>
		<path class="st0" d="M651.8,133.6c-0.4-5.5-0.7-11.1-1.1-16.6c-3-18.5-6.3-35.3-12.5-49.7c-1.9-4.4-7-18.6-10.9-20.1
			c-0.2-0.5-0.5-0.9-0.8-1.3c1.9-0.7,3.9-1.4,5.8-2.1c2.2-6.1,4-46.8,0.8-53.1c-3.6-7.7-18.7-7.9-25.5-7.9s-43.8,0-55.2,0
			s-23.9-0.9-27.6,6.7c-0.5,2-0.9,13.5-1.3,15.5c-1.3,1.7-28.6,2.6-31.8,0.8c-6.7-7.8-14.5-13-26.8-13s-9.9,3-15.5,4.2
			c-7.7,0-15.3,0-23,0C384-3,341.7-3,299.3-3c-12.4,0-43.9,0.4-64,1.7c-6.4,0.4-8.4,4.1-8.4,6.3c-2.7,1.2-45.9,1.5-92,2.1
			c0-4.2-0.4-5.1-0.4-7.1c0-0.6-1.7-3.4-4.6-3.8c-6.2-0.8-24.1-1-30.1,0c-2.4,0.4-3.3,3.7-3.3,4.2c0,2.1,1,9.9-1.7,13.8
			c-3.4,4.9-8.1,5.9-14.2,8.4c-9.5,3.8-17,11.9-20.1,22.1c-2.1,6.7-3.7,14.3-4.9,22.4c3.5,2.1,15.1,8.8,15.1,8.8s10.7-15.8,51-19
			c33.5-2.7,42.8,8.4,51,18c5.4,6.3,4.7,27.1,7,44c1.2,8.9,5.7,9.7,7,22c1.2,11.1-7,15.8-4,47c4,41.8,9,68,9,68s19.5,5.5,37,12
			c11.8,4.4,22.2,8.9,27,14c12.1,12.7-3,42-3,42s10.6,54.6,13,111c1.7,39.4-4,83.9-5.5,92.9c60.9,0,226.4,0.1,251,0.1
			c5.7,0,16-1.3,23.4-3.9c7.5-2.7,13.2-7.1,15-7.1c1.2,0,11.1,7.1,22.6,7.1c16.8,0,22.8-8,28.4-12.5c13.2-5.3,21.4-1,28.8-13
			c9.1-14.9,17.3-132.7,20.9-155.4c0.4-8,2.8-60.6,3.3-79C654,230.8,651.5,135,651.8,133.6z M257.6,77.7
			c-9.8-5.6-14.2-24.7-6.4-35.8c6.9-9.8,16.9-12.9,26-12.3c4.4,0.3,7.4,4.3,12.2,4.3s8.1-3.4,12.8-3.7c4.8-0.3,64.9,0,97.3,0
			c14.2,0,34.5-2.5,45.2,2.1c10.1,4.3,19,17.9,16,32c-1.4,6.5-9.4,17.9-14.9,20.3c-13.3,5.7-36.6,1.1-50-1.1
			c-24.6-4-51.7-2.1-78.1-2.1C296.8,81.4,271.8,85.8,257.6,77.7z M319.6,253.6L301.3,221l-8.9,9.4v23.2h-19.2V153.5h19.2v53.1
			l22.5-25.5h23.6l-24.8,26.5l26.6,46H319.6z M418.1,246.1c0,8.6-0.7,15-2.1,19.3c-1.4,4.2-3.4,7.6-5.9,10c-2.6,2.4-6,4.3-10.2,5.7
			c-4.3,1.4-9.6,2-16.2,2c-12.3,0-21-2.1-26.2-6.3c-5.1-4.2-7.7-9.6-7.7-16c0-0.6,0-1.4,0.1-2.3l21.9,2.7c0.4,2.5,1.2,4.3,2.5,5.3
			c1.8,1.4,4.7,2,8.6,2c5,0,8.8-0.8,11.3-2.3c1.7-1,3-2.6,3.8-4.8c0.6-1.6,0.9-4.5,0.9-8.8v-10.7c-5.7,7.8-13,11.7-21.7,11.7
			c-9.7,0-17.5-4.1-23.2-12.4c-4.5-6.5-6.7-14.6-6.7-24.3c0-12.2,2.9-21.4,8.8-27.9c5.8-6.4,13.1-9.6,21.8-9.6
			c9,0,16.4,3.9,22.2,11.8V181h18L418.1,246.1L418.1,246.1z M441,255.3h-14.1l24.8-103.5h14.4L441,255.3z M547.1,253.6h-70.4v-99.3
			h20.2v82.4h50.2V253.6z"/>
	</g>
</g>
</svg>
